<?xml version="1.0" encoding="UTF-8" standalone="no"?>
<svg
   width="140mm"
   height="51.771458mm"
   viewBox="0 0 396.8504 146.75374"
   version="1.1"
   id="svg157"
   sodipodi:docname="activation_functions_origin.svg"
   xml:space="preserve"
   inkscape:version="1.2 (dc2aedaf03, 2022-05-15)"
   xmlns:inkscape="http://www.inkscape.org/namespaces/inkscape"
   xmlns:sodipodi="http://sodipodi.sourceforge.net/DTD/sodipodi-0.dtd"
   xmlns:xlink="http://www.w3.org/1999/xlink"
   xmlns="http://www.w3.org/2000/svg"
   xmlns:svg="http://www.w3.org/2000/svg"
   xmlns:rdf="http://www.w3.org/1999/02/22-rdf-syntax-ns#"
   xmlns:cc="http://creativecommons.org/ns#"
   xmlns:dc="http://purl.org/dc/elements/1.1/"><sodipodi:namedview
     id="namedview159"
     pagecolor="#505050"
     bordercolor="#eeeeee"
     borderopacity="1"
     inkscape:showpageshadow="0"
     inkscape:pageopacity="0"
     inkscape:pagecheckerboard="0"
     inkscape:deskcolor="#505050"
     inkscape:document-units="pt"
     showgrid="false"
     inkscape:zoom="0.65600726"
     inkscape:cx="708.07144"
     inkscape:cy="303.3503"
     inkscape:window-width="1920"
     inkscape:window-height="1009"
     inkscape:window-x="3832"
     inkscape:window-y="-8"
     inkscape:window-maximized="1"
     inkscape:current-layer="svg157" /><metadata
     id="metadata2"><rdf:RDF><cc:Work><dc:type
           rdf:resource="http://purl.org/dc/dcmitype/StillImage" /><dc:date>2025-08-19T19:19:51.833781</dc:date><dc:format>image/svg+xml</dc:format><dc:creator><cc:Agent><dc:title>Matplotlib v3.10.0, https://matplotlib.org/</dc:title></cc:Agent></dc:creator></cc:Work></rdf:RDF></metadata><defs
     id="defs6"><style
       type="text/css"
       id="style4">*{stroke-linejoin: round; stroke-linecap: butt}</style><style
       type="text/css"
       id="style461">*{stroke-linejoin: round; stroke-linecap: butt}</style><path
       id="DejaVuSans-2d-6"
       d="M 313,2009 H 1997 V 1497 H 313 Z"
       transform="scale(0.015625)" /><path
       id="DejaVuSans-32-5"
       d="M 1228,531 H 3431 V 0 H 469 v 531 q 359,372 979,998 621,627 780,809 303,340 423,576 121,236 121,464 0,372 -261,606 -261,235 -680,235 -297,0 -627,-103 -329,-103 -704,-313 v 638 q 381,153 712,231 332,78 607,78 725,0 1156,-363 431,-362 431,-968 0,-288 -108,-546 -107,-257 -392,-607 -78,-91 -497,-524 Q 1991,1309 1228,531 Z"
       transform="scale(0.015625)" /><path
       id="DejaVuSans-30-8"
       d="m 2034,4250 q -487,0 -733,-480 -245,-479 -245,-1442 0,-959 245,-1439 246,-480 733,-480 491,0 736,480 246,480 246,1439 0,963 -246,1442 -245,480 -736,480 z m 0,500 q 785,0 1199,-621 414,-620 414,-1801 0,-1178 -414,-1799 -414,-620 -1199,-620 -784,0 -1198,620 -414,621 -414,1799 0,1181 414,1801 414,621 1198,621 z"
       transform="scale(0.015625)" /><path
       id="DejaVuSans-31-6"
       d="M 794,531 H 1825 V 4091 L 703,3866 v 575 l 1116,225 h 631 V 531 H 3481 V 0 H 794 Z"
       transform="scale(0.015625)" /><path
       id="DejaVuSans-33-5"
       d="m 2597,2516 q 453,-97 707,-404 255,-306 255,-756 0,-690 -475,-1069 -475,-378 -1350,-378 -293,0 -604,58 -311,58 -642,174 v 609 q 262,-153 574,-231 313,-78 654,-78 593,0 904,234 311,234 311,681 0,413 -289,645 -289,233 -804,233 h -544 v 519 h 569 q 465,0 712,186 247,186 247,536 0,359 -255,551 -254,193 -729,193 -260,0 -557,-57 -297,-56 -653,-174 v 562 q 360,100 674,150 314,50 592,50 719,0 1137,-327 419,-326 419,-882 0,-388 -222,-655 -222,-267 -631,-370 z"
       transform="scale(0.015625)" /><path
       id="DejaVuSans-4c-8"
       d="m 628,4666 h 631 V 531 H 3531 V 0 H 628 Z"
       transform="scale(0.015625)" /><path
       id="DejaVuSans-65-0"
       d="M 3597,1894 V 1613 H 953 q 38,-594 358,-905 320,-311 892,-311 331,0 642,81 311,81 618,244 V 178 Q 3153,47 2828,-22 2503,-91 2169,-91 1331,-91 842,396 353,884 353,1716 q 0,859 464,1363 464,505 1252,505 706,0 1117,-455 411,-454 411,-1235 z m -575,169 q -6,471 -264,752 -258,282 -683,282 -481,0 -770,-272 -289,-272 -333,-766 z"
       transform="scale(0.015625)" /><path
       id="DejaVuSans-61"
       d="m 2194,1759 q -697,0 -966,-159 -269,-159 -269,-544 0,-306 202,-486 202,-179 548,-179 479,0 768,339 289,339 289,901 v 128 z m 1147,238 V 0 H 2766 V 531 Q 2569,213 2275,61 1981,-91 1556,-91 q -537,0 -855,302 -317,302 -317,808 0,590 395,890 396,300 1180,300 h 807 v 57 q 0,397 -261,614 -261,217 -733,217 -300,0 -585,-72 -284,-72 -546,-216 v 532 q 315,122 612,182 297,61 578,61 760,0 1135,-394 375,-393 375,-1193 z"
       transform="scale(0.015625)" /><path
       id="DejaVuSans-6b"
       d="m 581,4863 h 578 V 1991 l 1716,1509 h 734 L 1753,1863 3688,0 H 2938 L 1159,1709 V 0 H 581 Z"
       transform="scale(0.015625)" /><path
       id="DejaVuSans-79"
       d="m 2059,-325 q -243,-625 -475,-815 -231,-191 -618,-191 H 506 v 481 h 338 q 237,0 368,113 132,112 291,531 L 1606,56 191,3500 H 800 L 1894,763 2988,3500 h 609 z"
       transform="scale(0.015625)" /><path
       id="DejaVuSans-20"
       transform="scale(0.015625)"
       d="" /><path
       id="DejaVuSans-52-0"
       d="m 2841,2188 q 203,-69 395,-294 192,-225 386,-619 L 4263,0 h -679 l -596,1197 q -232,469 -449,622 -217,153 -592,153 H 1259 V 0 H 628 v 4666 h 1425 q 800,0 1194,-335 394,-334 394,-1009 0,-441 -205,-732 -205,-290 -595,-402 z M 1259,4147 V 2491 h 794 q 456,0 689,211 233,211 233,620 0,409 -233,617 -233,208 -689,208 z"
       transform="scale(0.015625)" /><path
       id="DejaVuSans-55-5"
       d="m 556,4666 h 635 V 1831 q 0,-750 271,-1080 272,-329 882,-329 606,0 878,329 272,330 272,1080 v 2835 h 634 V 1753 Q 4128,841 3676,375 3225,-91 2344,-91 1459,-91 1007,375 556,841 556,1753 Z"
       transform="scale(0.015625)" /><path
       id="DejaVuSans-Bold-42"
       d="m 2456,2859 q 285,0 431,125 147,125 147,369 0,241 -147,367 -146,127 -431,127 h -665 v -988 z m 41,-2040 q 362,0 545,153 183,153 183,462 0,304 -181,455 -181,152 -547,152 H 1791 V 819 Z m 1119,1678 q 387,-113 599,-416 213,-303 213,-743 Q 4428,663 3972,331 3516,0 2584,0 H 588 v 4666 h 1806 q 972,0 1408,-294 436,-294 436,-941 0,-340 -160,-579 -159,-239 -462,-355 z"
       transform="scale(0.015625)" /><clipPath
       id="p4d89f6c417"><rect
         x="22.595125"
         y="34.766251"
         width="433.59686"
         height="295.31543"
         id="rect625" /></clipPath></defs><defs
     id="defs155"><clipPath
       id="p4822f61215"><rect
         x="22.749813"
         y="34.766251"
         width="433.4422"
         height="295.31543"
         id="rect152" /></clipPath></defs><g
     id="g1410"
     inkscape:label="Figure"
     transform="translate(-31.974792,-99.423135)"><rect
       style="fill:#ffffff;stroke-width:1.63624;stroke-linecap:round;stop-color:#000000"
       id="rect1197"
       width="396.8504"
       height="146.75244"
       x="31.974792"
       y="99.423782"
       inkscape:label="Background" /><g
       id="g1195"
       inkscape:label="Plots"
       transform="matrix(0.42340951,0,0,0.42340951,32.186501,99.423135)"><g
         id="figure_1"
         transform="translate(0,0.5)"
         inkscape:label="Figure A"><g
           id="patch_1"><path
             d="M 0,345.6 H 460.8 V 0 H 0 Z"
             style="fill:#ffffff"
             id="path8" /></g><g
           id="patch_2"><path
             d="M 0,345.6 H 460.8 V 0 H 0 Z"
             style="fill:#ffffff;stroke:#ffffff;stroke-linejoin:miter"
             id="path11" /></g><g
           id="axes_1"><g
             id="matplotlib.axis_1"><g
               id="xtick_1"><g
                 id="line2d_1"><path
                   d="M 108.12479,330.08169 V 34.76625"
                   clip-path="url(#p4822f61215)"
                   style="fill:none;stroke:#e5e5e5;stroke-linecap:square"
                   id="path14" /></g><g
                 id="text_1"><!-- -2 --><g
                   style="fill:#4d4d4d"
                   transform="matrix(0.09,0,0,-0.09,103.63815,339.12028)"
                   id="g25"><defs
                     id="defs19"><path
                       id="DejaVuSans-2d"
                       d="M 313,2009 H 1997 V 1497 H 313 Z"
                       transform="scale(0.015625)" /><path
                       id="DejaVuSans-32"
                       d="M 1228,531 H 3431 V 0 H 469 v 531 q 359,372 979,998 621,627 780,809 303,340 423,576 121,236 121,464 0,372 -261,606 -261,235 -680,235 -297,0 -627,-103 -329,-103 -704,-313 v 638 q 381,153 712,231 332,78 607,78 725,0 1156,-363 431,-362 431,-968 0,-288 -108,-546 -107,-257 -392,-607 -78,-91 -497,-524 Q 1991,1309 1228,531 Z"
                       transform="scale(0.015625)" /></defs><use
                     xlink:href="#DejaVuSans-2d"
                     id="use21" /><use
                     xlink:href="#DejaVuSans-32"
                     transform="translate(36.083984)"
                     id="use23" /></g></g></g><g
               id="xtick_2"><g
                 id="line2d_2"><path
                   d="M 239.47091,330.08169 V 34.76625"
                   clip-path="url(#p4822f61215)"
                   style="fill:none;stroke:#e5e5e5;stroke-linecap:square"
                   id="path29" /></g><g
                 id="text_2"><!-- 0 --><g
                   style="fill:#4d4d4d"
                   transform="matrix(0.09,0,0,-0.09,236.60778,339.12028)"
                   id="g37"><defs
                     id="defs33"><path
                       id="DejaVuSans-30"
                       d="m 2034,4250 q -487,0 -733,-480 -245,-479 -245,-1442 0,-959 245,-1439 246,-480 733,-480 491,0 736,480 246,480 246,1439 0,963 -246,1442 -245,480 -736,480 z m 0,500 q 785,0 1199,-621 414,-620 414,-1801 0,-1178 -414,-1799 -414,-620 -1199,-620 -784,0 -1198,620 -414,621 -414,1799 0,1181 414,1801 414,621 1198,621 z"
                       transform="scale(0.015625)" /></defs><use
                     xlink:href="#DejaVuSans-30"
                     id="use35" /></g></g></g><g
               id="xtick_3"><g
                 id="line2d_3"><path
                   d="M 370.81702,330.08169 V 34.76625"
                   clip-path="url(#p4822f61215)"
                   style="fill:none;stroke:#e5e5e5;stroke-linecap:square"
                   id="path41" /></g><g
                 id="text_3"><!-- 2 --><g
                   style="fill:#4d4d4d"
                   transform="matrix(0.09,0,0,-0.09,367.9539,339.12028)"
                   id="g46"><use
                     xlink:href="#DejaVuSans-32"
                     id="use44" /></g></g></g><g
               id="xtick_4"><g
                 id="line2d_4"><path
                   d="M 42.45173,330.08169 V 34.76625"
                   clip-path="url(#p4822f61215)"
                   style="fill:none;stroke:#fafafa;stroke-width:0.5;stroke-linecap:square"
                   id="path50" /></g></g><g
               id="xtick_5"><g
                 id="line2d_5"><path
                   d="M 173.79785,330.08169 V 34.76625"
                   clip-path="url(#p4822f61215)"
                   style="fill:none;stroke:#fafafa;stroke-width:0.5;stroke-linecap:square"
                   id="path54" /></g></g><g
               id="xtick_6"><g
                 id="line2d_6"><path
                   d="M 305.14396,330.08169 V 34.76625"
                   clip-path="url(#p4822f61215)"
                   style="fill:none;stroke:#fafafa;stroke-width:0.5;stroke-linecap:square"
                   id="path58" /></g></g><g
               id="xtick_7"><g
                 id="line2d_7"><path
                   d="M 436.49008,330.08169 V 34.76625"
                   clip-path="url(#p4822f61215)"
                   style="fill:none;stroke:#fafafa;stroke-width:0.5;stroke-linecap:square"
                   id="path62" /></g></g></g><g
             id="matplotlib.axis_2"><g
               id="ytick_1"><g
                 id="line2d_8"><path
                   d="M 22.749813,316.65826 H 456.192"
                   clip-path="url(#p4822f61215)"
                   style="fill:none;stroke:#e5e5e5;stroke-linecap:square"
                   id="path67" /></g><g
                 id="text_4"><!-- 0 --><g
                   style="fill:#4d4d4d"
                   transform="matrix(0.09,0,0,-0.09,14.823563,320.07756)"
                   id="g72"><use
                     xlink:href="#DejaVuSans-30"
                     id="use70" /></g></g></g><g
               id="ytick_2"><g
                 id="line2d_9"><path
                   d="M 22.749813,227.16873 H 456.192"
                   clip-path="url(#p4822f61215)"
                   style="fill:none;stroke:#e5e5e5;stroke-linecap:square"
                   id="path76" /></g><g
                 id="text_5"><!-- 1 --><g
                   style="fill:#4d4d4d"
                   transform="matrix(0.09,0,0,-0.09,14.823563,230.58803)"
                   id="g84"><defs
                     id="defs80"><path
                       id="DejaVuSans-31"
                       d="M 794,531 H 1825 V 4091 L 703,3866 v 575 l 1116,225 h 631 V 531 H 3481 V 0 H 794 Z"
                       transform="scale(0.015625)" /></defs><use
                     xlink:href="#DejaVuSans-31"
                     id="use82" /></g></g></g><g
               id="ytick_3"><g
                 id="line2d_10"><path
                   d="M 22.749813,137.6792 H 456.192"
                   clip-path="url(#p4822f61215)"
                   style="fill:none;stroke:#e5e5e5;stroke-linecap:square"
                   id="path88" /></g><g
                 id="text_6"><!-- 2 --><g
                   style="fill:#4d4d4d"
                   transform="matrix(0.09,0,0,-0.09,14.823563,141.0985)"
                   id="g93"><use
                     xlink:href="#DejaVuSans-32"
                     id="use91" /></g></g></g><g
               id="ytick_4"><g
                 id="line2d_11"><path
                   d="M 22.749813,48.189679 H 456.192"
                   clip-path="url(#p4822f61215)"
                   style="fill:none;stroke:#e5e5e5;stroke-linecap:square"
                   id="path97" /></g><g
                 id="text_7"><!-- 3 --><g
                   style="fill:#4d4d4d"
                   transform="matrix(0.09,0,0,-0.09,14.823563,51.608976)"
                   id="g105"><defs
                     id="defs101"><path
                       id="DejaVuSans-33"
                       d="m 2597,2516 q 453,-97 707,-404 255,-306 255,-756 0,-690 -475,-1069 -475,-378 -1350,-378 -293,0 -604,58 -311,58 -642,174 v 609 q 262,-153 574,-231 313,-78 654,-78 593,0 904,234 311,234 311,681 0,413 -289,645 -289,233 -804,233 h -544 v 519 h 569 q 465,0 712,186 247,186 247,536 0,359 -255,551 -254,193 -729,193 -260,0 -557,-57 -297,-56 -653,-174 v 562 q 360,100 674,150 314,50 592,50 719,0 1137,-327 419,-326 419,-882 0,-388 -222,-655 -222,-267 -631,-370 z"
                       transform="scale(0.015625)" /></defs><use
                     xlink:href="#DejaVuSans-33"
                     id="use103" /></g></g></g><g
               id="ytick_5"><g
                 id="line2d_12"><path
                   d="M 22.749813,271.91349 H 456.192"
                   clip-path="url(#p4822f61215)"
                   style="fill:none;stroke:#fafafa;stroke-width:0.5;stroke-linecap:square"
                   id="path109" /></g></g><g
               id="ytick_6"><g
                 id="line2d_13"><path
                   d="M 22.749813,182.42397 H 456.192"
                   clip-path="url(#p4822f61215)"
                   style="fill:none;stroke:#fafafa;stroke-width:0.5;stroke-linecap:square"
                   id="path113" /></g></g><g
               id="ytick_7"><g
                 id="line2d_14"><path
                   d="M 22.749813,92.934442 H 456.192"
                   clip-path="url(#p4822f61215)"
                   style="fill:none;stroke:#fafafa;stroke-width:0.5;stroke-linecap:square"
                   id="path117" /></g></g></g><g
             id="line2d_15"><path
               d="m 42.45173,316.65826 h 65.67306 65.67306 65.67306 l 65.67305,-89.48953 65.67306,-89.48953 65.67306,-89.489521"
               clip-path="url(#p4822f61215)"
               style="fill:none;stroke:#1d2951;stroke-width:1.77245"
               id="path122" /></g></g><g
           id="text_8"><!-- ReLU --><g
             transform="matrix(0.132,0,0,-0.132,222.94306,27.413063)"
             id="g140"><defs
               id="defs130"><path
                 id="DejaVuSans-52"
                 d="m 2841,2188 q 203,-69 395,-294 192,-225 386,-619 L 4263,0 h -679 l -596,1197 q -232,469 -449,622 -217,153 -592,153 H 1259 V 0 H 628 v 4666 h 1425 q 800,0 1194,-335 394,-334 394,-1009 0,-441 -205,-732 -205,-290 -595,-402 z M 1259,4147 V 2491 h 794 q 456,0 689,211 233,211 233,620 0,409 -233,617 -233,208 -689,208 z"
                 transform="scale(0.015625)" /><path
                 id="DejaVuSans-65"
                 d="M 3597,1894 V 1613 H 953 q 38,-594 358,-905 320,-311 892,-311 331,0 642,81 311,81 618,244 V 178 Q 3153,47 2828,-22 2503,-91 2169,-91 1331,-91 842,396 353,884 353,1716 q 0,859 464,1363 464,505 1252,505 706,0 1117,-455 411,-454 411,-1235 z m -575,169 q -6,471 -264,752 -258,282 -683,282 -481,0 -770,-272 -289,-272 -333,-766 z"
                 transform="scale(0.015625)" /><path
                 id="DejaVuSans-4c"
                 d="m 628,4666 h 631 V 531 H 3531 V 0 H 628 Z"
                 transform="scale(0.015625)" /><path
                 id="DejaVuSans-55"
                 d="m 556,4666 h 635 V 1831 q 0,-750 271,-1080 272,-329 882,-329 606,0 878,329 272,330 272,1080 v 2835 h 634 V 1753 Q 4128,841 3676,375 3225,-91 2344,-91 1459,-91 1007,375 556,841 556,1753 Z"
                 transform="scale(0.015625)" /></defs><use
               xlink:href="#DejaVuSans-52"
               id="use132" /><use
               xlink:href="#DejaVuSans-65"
               transform="translate(64.982422)"
               id="use134" /><use
               xlink:href="#DejaVuSans-4c"
               transform="translate(126.50586)"
               id="use136" /><use
               xlink:href="#DejaVuSans-55"
               transform="translate(177.21875)"
               id="use138" /></g></g><g
           id="text_9"><!-- A --><g
             transform="matrix(0.132,0,0,-0.132,4.608,14.637938)"
             id="g148"><defs
               id="defs144"><path
                 id="DejaVuSans-Bold-41"
                 d="M 3419,850 H 1538 L 1241,0 H 31 L 1759,4666 H 3194 L 4922,0 H 3713 Z m -1581,866 h 1278 l -638,1856 z"
                 transform="scale(0.015625)" /></defs><use
               xlink:href="#DejaVuSans-Bold-41"
               id="use146" /></g></g></g><g
         id="figure_1-9"
         transform="translate(475.47322,0.5)"
         inkscape:label="Figure B"><g
           id="patch_1-9"><path
             d="M 0,345.6 H 460.8 V 0 H 0 Z"
             style="fill:#ffffff"
             id="path465" /></g><g
           id="patch_2-7"><path
             d="M 0,345.6 H 460.8 V 0 H 0 Z"
             style="fill:#ffffff;stroke:#ffffff;stroke-linejoin:miter"
             id="path468" /></g><g
           id="axes_1-2"><g
             id="matplotlib.axis_1-6"><g
               id="xtick_1-6"><g
                 id="line2d_1-3"><path
                   d="M 108.00057,330.08169 V 34.76625"
                   clip-path="url(#p4d89f6c417)"
                   style="fill:none;stroke:#e5e5e5;stroke-linecap:square"
                   id="path471" /></g><g
                 id="text_1-3"><!-- -2 --><g
                   style="fill:#4d4d4d"
                   transform="matrix(0.09,0,0,-0.09,103.51393,339.12028)"
                   id="g482"><defs
                     id="defs476"><path
                       id="path657"
                       d="M 313,2009 H 1997 V 1497 H 313 Z"
                       transform="scale(0.015625)" /><path
                       id="path659"
                       d="M 1228,531 H 3431 V 0 H 469 v 531 q 359,372 979,998 621,627 780,809 303,340 423,576 121,236 121,464 0,372 -261,606 -261,235 -680,235 -297,0 -627,-103 -329,-103 -704,-313 v 638 q 381,153 712,231 332,78 607,78 725,0 1156,-363 431,-362 431,-968 0,-288 -108,-546 -107,-257 -392,-607 -78,-91 -497,-524 Q 1991,1309 1228,531 Z"
                       transform="scale(0.015625)" /></defs><use
                     xlink:href="#DejaVuSans-2d-6"
                     id="use478" /><use
                     xlink:href="#DejaVuSans-32-5"
                     transform="translate(36.083984)"
                     id="use480" /></g></g></g><g
               id="xtick_2-2"><g
                 id="line2d_2-6"><path
                   d="M 239.39356,330.08169 V 34.76625"
                   clip-path="url(#p4d89f6c417)"
                   style="fill:none;stroke:#e5e5e5;stroke-linecap:square"
                   id="path486" /></g><g
                 id="text_2-2"><!-- 0 --><g
                   style="fill:#4d4d4d"
                   transform="matrix(0.09,0,0,-0.09,236.53044,339.12028)"
                   id="g494"><defs
                     id="defs490"><path
                       id="path669"
                       d="m 2034,4250 q -487,0 -733,-480 -245,-479 -245,-1442 0,-959 245,-1439 246,-480 733,-480 491,0 736,480 246,480 246,1439 0,963 -246,1442 -245,480 -736,480 z m 0,500 q 785,0 1199,-621 414,-620 414,-1801 0,-1178 -414,-1799 -414,-620 -1199,-620 -784,0 -1198,620 -414,621 -414,1799 0,1181 414,1801 414,621 1198,621 z"
                       transform="scale(0.015625)" /></defs><use
                     xlink:href="#DejaVuSans-30-8"
                     id="use492" /></g></g></g><g
               id="xtick_3-1"><g
                 id="line2d_3-2"><path
                   d="M 370.78656,330.08169 V 34.76625"
                   clip-path="url(#p4d89f6c417)"
                   style="fill:none;stroke:#e5e5e5;stroke-linecap:square"
                   id="path498" /></g><g
                 id="text_3-4"><!-- 2 --><g
                   style="fill:#4d4d4d"
                   transform="matrix(0.09,0,0,-0.09,367.92343,339.12028)"
                   id="g503"><use
                     xlink:href="#DejaVuSans-32-5"
                     id="use501" /></g></g></g><g
               id="xtick_4-1"><g
                 id="line2d_4-0"><path
                   d="M 42.304074,330.08169 V 34.76625"
                   clip-path="url(#p4d89f6c417)"
                   style="fill:none;stroke:#fafafa;stroke-width:0.5;stroke-linecap:square"
                   id="path507" /></g></g><g
               id="xtick_5-6"><g
                 id="line2d_5-8"><path
                   d="M 173.69707,330.08169 V 34.76625"
                   clip-path="url(#p4d89f6c417)"
                   style="fill:none;stroke:#fafafa;stroke-width:0.5;stroke-linecap:square"
                   id="path511" /></g></g><g
               id="xtick_6-0"><g
                 id="line2d_6-9"><path
                   d="M 305.09006,330.08169 V 34.76625"
                   clip-path="url(#p4d89f6c417)"
                   style="fill:none;stroke:#fafafa;stroke-width:0.5;stroke-linecap:square"
                   id="path515" /></g></g><g
               id="xtick_7-4"><g
                 id="line2d_7-7"><path
                   d="M 436.48305,330.08169 V 34.76625"
                   clip-path="url(#p4d89f6c417)"
                   style="fill:none;stroke:#fafafa;stroke-width:0.5;stroke-linecap:square"
                   id="path519" /></g></g></g><g
             id="matplotlib.axis_2-8"><g
               id="ytick_1-4"><g
                 id="line2d_8-4"><path
                   d="M 22.595125,303.87404 H 456.192"
                   clip-path="url(#p4d89f6c417)"
                   style="fill:none;stroke:#e5e5e5;stroke-linecap:square"
                   id="path524" /></g><g
                 id="text_4-5"><!-- 0 --><g
                   style="fill:#4d4d4d"
                   transform="matrix(0.09,0,0,-0.09,14.668875,307.29334)"
                   id="g529"><use
                     xlink:href="#DejaVuSans-30-8"
                     id="use527" /></g></g></g><g
               id="ytick_2-8"><g
                 id="line2d_9-2"><path
                   d="M 22.595125,218.64592 H 456.192"
                   clip-path="url(#p4d89f6c417)"
                   style="fill:none;stroke:#e5e5e5;stroke-linecap:square"
                   id="path533" /></g><g
                 id="text_5-4"><!-- 1 --><g
                   style="fill:#4d4d4d"
                   transform="matrix(0.09,0,0,-0.09,14.668875,222.06522)"
                   id="g541"><defs
                     id="defs537"><path
                       id="path703"
                       d="M 794,531 H 1825 V 4091 L 703,3866 v 575 l 1116,225 h 631 V 531 H 3481 V 0 H 794 Z"
                       transform="scale(0.015625)" /></defs><use
                     xlink:href="#DejaVuSans-31-6"
                     id="use539" /></g></g></g><g
               id="ytick_3-9"><g
                 id="line2d_10-5"><path
                   d="M 22.595125,133.4178 H 456.192"
                   clip-path="url(#p4d89f6c417)"
                   style="fill:none;stroke:#e5e5e5;stroke-linecap:square"
                   id="path545" /></g><g
                 id="text_6-3"><!-- 2 --><g
                   style="fill:#4d4d4d"
                   transform="matrix(0.09,0,0,-0.09,14.668875,136.8371)"
                   id="g550"><use
                     xlink:href="#DejaVuSans-32-5"
                     id="use548" /></g></g></g><g
               id="ytick_4-3"><g
                 id="line2d_11-9"><path
                   d="M 22.595125,48.189679 H 456.192"
                   clip-path="url(#p4d89f6c417)"
                   style="fill:none;stroke:#e5e5e5;stroke-linecap:square"
                   id="path554" /></g><g
                 id="text_7-6"><!-- 3 --><g
                   style="fill:#4d4d4d"
                   transform="matrix(0.09,0,0,-0.09,14.668875,51.608976)"
                   id="g562"><defs
                     id="defs558"><path
                       id="path718"
                       d="m 2597,2516 q 453,-97 707,-404 255,-306 255,-756 0,-690 -475,-1069 -475,-378 -1350,-378 -293,0 -604,58 -311,58 -642,174 v 609 q 262,-153 574,-231 313,-78 654,-78 593,0 904,234 311,234 311,681 0,413 -289,645 -289,233 -804,233 h -544 v 519 h 569 q 465,0 712,186 247,186 247,536 0,359 -255,551 -254,193 -729,193 -260,0 -557,-57 -297,-56 -653,-174 v 562 q 360,100 674,150 314,50 592,50 719,0 1137,-327 419,-326 419,-882 0,-388 -222,-655 -222,-267 -631,-370 z"
                       transform="scale(0.015625)" /></defs><use
                     xlink:href="#DejaVuSans-33-5"
                     id="use560" /></g></g></g><g
               id="ytick_5-8"><g
                 id="line2d_12-6"><path
                   d="M 22.595125,261.25998 H 456.192"
                   clip-path="url(#p4d89f6c417)"
                   style="fill:none;stroke:#fafafa;stroke-width:0.5;stroke-linecap:square"
                   id="path566" /></g></g><g
               id="ytick_6-9"><g
                 id="line2d_13-1"><path
                   d="M 22.595125,176.03186 H 456.192"
                   clip-path="url(#p4d89f6c417)"
                   style="fill:none;stroke:#fafafa;stroke-width:0.5;stroke-linecap:square"
                   id="path570" /></g></g><g
               id="ytick_7-8"><g
                 id="line2d_14-4"><path
                   d="M 22.595125,90.803739 H 456.192"
                   clip-path="url(#p4d89f6c417)"
                   style="fill:none;stroke:#fafafa;stroke-width:0.5;stroke-linecap:square"
                   id="path574" /></g></g></g><g
             id="line2d_15-7"><path
               d="m 42.304074,316.65826 65.696496,-4.26141 65.6965,-4.2614 65.69649,-4.26141 65.6965,-85.22812 65.6965,-85.22812 65.69649,-85.228121"
               clip-path="url(#p4d89f6c417)"
               style="fill:none;stroke:#1d2951;stroke-width:1.77245"
               id="path579" /></g></g><g
           id="text_8-8"><!-- Leaky ReLU --><g
             transform="matrix(0.132,0,0,-0.132,201.61166,27.413063)"
             id="g613"><defs
               id="defs591"><path
                 id="path738"
                 d="m 628,4666 h 631 V 531 H 3531 V 0 H 628 Z"
                 transform="scale(0.015625)" /><path
                 id="path740"
                 d="M 3597,1894 V 1613 H 953 q 38,-594 358,-905 320,-311 892,-311 331,0 642,81 311,81 618,244 V 178 Q 3153,47 2828,-22 2503,-91 2169,-91 1331,-91 842,396 353,884 353,1716 q 0,859 464,1363 464,505 1252,505 706,0 1117,-455 411,-454 411,-1235 z m -575,169 q -6,471 -264,752 -258,282 -683,282 -481,0 -770,-272 -289,-272 -333,-766 z"
                 transform="scale(0.015625)" /><path
                 id="path742"
                 d="m 2194,1759 q -697,0 -966,-159 -269,-159 -269,-544 0,-306 202,-486 202,-179 548,-179 479,0 768,339 289,339 289,901 v 128 z m 1147,238 V 0 H 2766 V 531 Q 2569,213 2275,61 1981,-91 1556,-91 q -537,0 -855,302 -317,302 -317,808 0,590 395,890 396,300 1180,300 h 807 v 57 q 0,397 -261,614 -261,217 -733,217 -300,0 -585,-72 -284,-72 -546,-216 v 532 q 315,122 612,182 297,61 578,61 760,0 1135,-394 375,-393 375,-1193 z"
                 transform="scale(0.015625)" /><path
                 id="path744"
                 d="m 581,4863 h 578 V 1991 l 1716,1509 h 734 L 1753,1863 3688,0 H 2938 L 1159,1709 V 0 H 581 Z"
                 transform="scale(0.015625)" /><path
                 id="path746"
                 d="m 2059,-325 q -243,-625 -475,-815 -231,-191 -618,-191 H 506 v 481 h 338 q 237,0 368,113 132,112 291,531 L 1606,56 191,3500 H 800 L 1894,763 2988,3500 h 609 z"
                 transform="scale(0.015625)" /><path
                 id="path748"
                 transform="scale(0.015625)"
                 d="" /><path
                 id="path750"
                 d="m 2841,2188 q 203,-69 395,-294 192,-225 386,-619 L 4263,0 h -679 l -596,1197 q -232,469 -449,622 -217,153 -592,153 H 1259 V 0 H 628 v 4666 h 1425 q 800,0 1194,-335 394,-334 394,-1009 0,-441 -205,-732 -205,-290 -595,-402 z M 1259,4147 V 2491 h 794 q 456,0 689,211 233,211 233,620 0,409 -233,617 -233,208 -689,208 z"
                 transform="scale(0.015625)" /><path
                 id="path752"
                 d="m 556,4666 h 635 V 1831 q 0,-750 271,-1080 272,-329 882,-329 606,0 878,329 272,330 272,1080 v 2835 h 634 V 1753 Q 4128,841 3676,375 3225,-91 2344,-91 1459,-91 1007,375 556,841 556,1753 Z"
                 transform="scale(0.015625)" /></defs><use
               xlink:href="#DejaVuSans-4c-8"
               id="use593" /><use
               xlink:href="#DejaVuSans-65-0"
               transform="translate(53.962891)"
               id="use595" /><use
               xlink:href="#DejaVuSans-61"
               transform="translate(115.48633)"
               id="use597" /><use
               xlink:href="#DejaVuSans-6b"
               transform="translate(176.76562)"
               id="use599" /><use
               xlink:href="#DejaVuSans-79"
               transform="translate(231.05078)"
               id="use601" /><use
               xlink:href="#DejaVuSans-20"
               transform="translate(290.23047)"
               id="use603" /><use
               xlink:href="#DejaVuSans-52-0"
               transform="translate(322.01758)"
               id="use605" /><use
               xlink:href="#DejaVuSans-65-0"
               transform="translate(387)"
               id="use607" /><use
               xlink:href="#DejaVuSans-4c-8"
               transform="translate(448.52344)"
               id="use609" /><use
               xlink:href="#DejaVuSans-55-5"
               transform="translate(499.23633)"
               id="use611" /></g></g><g
           id="text_9-0"><!-- B --><g
             transform="matrix(0.132,0,0,-0.132,4.608,14.637938)"
             id="g621"><defs
               id="defs617"><path
                 id="path767"
                 d="m 2456,2859 q 285,0 431,125 147,125 147,369 0,241 -147,367 -146,127 -431,127 h -665 v -988 z m 41,-2040 q 362,0 545,153 183,153 183,462 0,304 -181,455 -181,152 -547,152 H 1791 V 819 Z m 1119,1678 q 387,-113 599,-416 213,-303 213,-743 Q 4428,663 3972,331 3516,0 2584,0 H 588 v 4666 h 1806 q 972,0 1408,-294 436,-294 436,-941 0,-340 -160,-579 -159,-239 -462,-355 z"
                 transform="scale(0.015625)" /></defs><use
               xlink:href="#DejaVuSans-Bold-42"
               id="use619" /></g></g></g><rect
         style="display:none;fill:#ffffff;stroke-width:0.292425;stroke-linecap:round;stop-color:#000000"
         id="rect984"
         width="14.173228"
         height="346.60062"
         x="460.79999"
         y="2.220446e-16"
         inkscape:label="V space" /></g></g></svg>
