<?xml version="1.0" encoding="UTF-8" standalone="no"?>
<svg
   width="140mm"
   height="51.771458mm"
   viewBox="0 0 396.8504 146.75374"
   version="1.1"
   id="svg157"
   sodipodi:docname="activation_functions_origin.svg"
   xml:space="preserve"
   inkscape:version="1.2 (dc2aedaf03, 2022-05-15)"
   xmlns:inkscape="http://www.inkscape.org/namespaces/inkscape"
   xmlns:sodipodi="http://sodipodi.sourceforge.net/DTD/sodipodi-0.dtd"
   xmlns="http://www.w3.org/2000/svg"
   xmlns:svg="http://www.w3.org/2000/svg"
   xmlns:rdf="http://www.w3.org/1999/02/22-rdf-syntax-ns#"
   xmlns:cc="http://creativecommons.org/ns#"
   xmlns:dc="http://purl.org/dc/elements/1.1/"><sodipodi:namedview
     id="namedview159"
     pagecolor="#505050"
     bordercolor="#eeeeee"
     borderopacity="1"
     inkscape:showpageshadow="0"
     inkscape:pageopacity="0"
     inkscape:pagecheckerboard="0"
     inkscape:deskcolor="#505050"
     inkscape:document-units="pt"
     showgrid="false"
     inkscape:zoom="0.65600726"
     inkscape:cx="708.07144"
     inkscape:cy="303.3503"
     inkscape:window-width="1920"
     inkscape:window-height="1009"
     inkscape:window-x="3832"
     inkscape:window-y="-8"
     inkscape:window-maximized="1"
     inkscape:current-layer="svg157" /><metadata
     id="metadata2"><rdf:RDF><cc:Work><dc:type
           rdf:resource="http://purl.org/dc/dcmitype/StillImage" /><dc:date>2025-08-19T19:19:51.833781</dc:date><dc:format>image/svg+xml</dc:format><dc:creator><cc:Agent><dc:title>Matplotlib v3.10.0, https://matplotlib.org/</dc:title></cc:Agent></dc:creator></cc:Work></rdf:RDF></metadata><defs
     id="defs6"><style
       type="text/css"
       id="style4">*{stroke-linejoin: round; stroke-linecap: butt}</style><style
       type="text/css"
       id="style461">*{stroke-linejoin: round; stroke-linecap: butt}</style><path
       id="DejaVuSans-2d-6"
       d="M 313,2009 H 1997 V 1497 H 313 Z"
       transform="scale(0.015625)" /><path
       id="DejaVuSans-32-5"
       d="M 1228,531 H 3431 V 0 H 469 v 531 q 359,372 979,998 621,627 780,809 303,340 423,576 121,236 121,464 0,372 -261,606 -261,235 -680,235 -297,0 -627,-103 -329,-103 -704,-313 v 638 q 381,153 712,231 332,78 607,78 725,0 1156,-363 431,-362 431,-968 0,-288 -108,-546 -107,-257 -392,-607 -78,-91 -497,-524 Q 1991,1309 1228,531 Z"
       transform="scale(0.015625)" /><path
       id="DejaVuSans-30-8"
       d="m 2034,4250 q -487,0 -733,-480 -245,-479 -245,-1442 0,-959 245,-1439 246,-480 733,-480 491,0 736,480 246,480 246,1439 0,963 -246,1442 -245,480 -736,480 z m 0,500 q 785,0 1199,-621 414,-620 414,-1801 0,-1178 -414,-1799 -414,-620 -1199,-620 -784,0 -1198,620 -414,621 -414,1799 0,1181 414,1801 414,621 1198,621 z"
       transform="scale(0.015625)" /><path
       id="DejaVuSans-31-6"
       d="M 794,531 H 1825 V 4091 L 703,3866 v 575 l 1116,225 h 631 V 531 H 3481 V 0 H 794 Z"
       transform="scale(0.015625)" /><path
       id="DejaVuSans-33-5"
       d="m 2597,2516 q 453,-97 707,-404 255,-306 255,-756 0,-690 -475,-1069 -475,-378 -1350,-378 -293,0 -604,58 -311,58 -642,174 v 609 q 262,-153 574,-231 313,-78 654,-78 593,0 904,234 311,234 311,681 0,413 -289,645 -289,233 -804,233 h -544 v 519 h 569 q 465,0 712,186 247,186 247,536 0,359 -255,551 -254,193 -729,193 -260,0 -557,-57 -297,-56 -653,-174 v 562 q 360,100 674,150 314,50 592,50 719,0 1137,-327 419,-326 419,-882 0,-388 -222,-655 -222,-267 -631,-370 z"
       transform="scale(0.015625)" /><path
       id="DejaVuSans-4c-8"
       d="m 628,4666 h 631 V 531 H 3531 V 0 H 628 Z"
       transform="scale(0.015625)" /><path
       id="DejaVuSans-65-0"
       d="M 3597,1894 V 1613 H 953 q 38,-594 358,-905 320,-311 892,-311 331,0 642,81 311,81 618,244 V 178 Q 3153,47 2828,-22 2503,-91 2169,-91 1331,-91 842,396 353,884 353,1716 q 0,859 464,1363 464,505 1252,505 706,0 1117,-455 411,-454 411,-1235 z m -575,169 q -6,471 -264,752 -258,282 -683,282 -481,0 -770,-272 -289,-272 -333,-766 z"
       transform="scale(0.015625)" /><path
       id="DejaVuSans-61"
       d="m 2194,1759 q -697,0 -966,-159 -269,-159 -269,-544 0,-306 202,-486 202,-179 548,-179 479,0 768,339 289,339 289,901 v 128 z m 1147,238 V 0 H 2766 V 531 Q 2569,213 2275,61 1981,-91 1556,-91 q -537,0 -855,302 -317,302 -317,808 0,590 395,890 396,300 1180,300 h 807 v 57 q 0,397 -261,614 -261,217 -733,217 -300,0 -585,-72 -284,-72 -546,-216 v 532 q 315,122 612,182 297,61 578,61 760,0 1135,-394 375,-393 375,-1193 z"
       transform="scale(0.015625)" /><path
       id="DejaVuSans-6b"
       d="m 581,4863 h 578 V 1991 l 1716,1509 h 734 L 1753,1863 3688,0 H 2938 L 1159,1709 V 0 H 581 Z"
       transform="scale(0.015625)" /><path
       id="DejaVuSans-79"
       d="m 2059,-325 q -243,-625 -475,-815 -231,-191 -618,-191 H 506 v 481 h 338 q 237,0 368,113 132,112 291,531 L 1606,56 191,3500 H 800 L 1894,763 2988,3500 h 609 z"
       transform="scale(0.015625)" /><path
       id="DejaVuSans-20"
       transform="scale(0.015625)"
       d="" /><path
       id="DejaVuSans-52-0"
       d="m 2841,2188 q 203,-69 395,-294 192,-225 386,-619 L 4263,0 h -679 l -596,1197 q -232,469 -449,622 -217,153 -592,153 H 1259 V 0 H 628 v 4666 h 1425 q 800,0 1194,-335 394,-334 394,-1009 0,-441 -205,-732 -205,-290 -595,-402 z M 1259,4147 V 2491 h 794 q 456,0 689,211 233,211 233,620 0,409 -233,617 -233,208 -689,208 z"
       transform="scale(0.015625)" /><path
       id="DejaVuSans-55-5"
       d="m 556,4666 h 635 V 1831 q 0,-750 271,-1080 272,-329 882,-329 606,0 878,329 272,330 272,1080 v 2835 h 634 V 1753 Q 4128,841 3676,375 3225,-91 2344,-91 1459,-91 1007,375 556,841 556,1753 Z"
       transform="scale(0.015625)" /><path
       id="DejaVuSans-Bold-42"
       d="m 2456,2859 q 285,0 431,125 147,125 147,369 0,241 -147,367 -146,127 -431,127 h -665 v -988 z m 41,-2040 q 362,0 545,153 183,153 183,462 0,304 -181,455 -181,152 -547,152 H 1791 V 819 Z m 1119,1678 q 387,-113 599,-416 213,-303 213,-743 Q 4428,663 3972,331 3516,0 2584,0 H 588 v 4666 h 1806 q 972,0 1408,-294 436,-294 436,-941 0,-340 -160,-579 -159,-239 -462,-355 z"
       transform="scale(0.015625)" /><clipPath
       id="p4d89f6c417"><rect
         x="22.595125"
         y="34.766251"
         width="433.59686"
         height="295.31543"
         id="rect625" /></clipPath></defs><defs
     id="defs155"><clipPath
       id="p4822f61215"><rect
         x="22.749813"
         y="34.766251"
         width="433.4422"
         height="295.31543"
         id="rect152" /></clipPath></defs><g
     id="g1410"
     inkscape:label="Figure"
     transform="translate(-31.974792,-99.423135)"><path
       id="rect1197"
       style="fill:#ffffff;stroke-width:1.63624;stroke-linecap:round;stop-color:#000000"
       inkscape:label="Background"
       d="M 31.974792,99.423782 H 428.8252 V 246.17622 H 31.974792 Z" /><g
       id="g1195"
       inkscape:label="Plots"
       transform="matrix(0.42340951,0,0,0.42340951,32.186501,99.423135)"><g
         id="figure_1"
         transform="translate(0,0.5)"
         inkscape:label="Figure A"><g
           id="patch_1"><path
             d="M 0,345.6 H 460.8 V 0 H 0 Z"
             style="fill:#ffffff"
             id="path8" /></g><g
           id="patch_2"><path
             d="M 0,345.6 H 460.8 V 0 H 0 Z"
             style="fill:#ffffff;stroke:#ffffff;stroke-linejoin:miter"
             id="path11" /></g><g
           id="axes_1"><g
             id="matplotlib.axis_1"><g
               id="xtick_1"><g
                 id="line2d_1"><path
                   d="M 108.12479,330.08169 V 34.76625"
                   clip-path="url(#p4822f61215)"
                   style="fill:none;stroke:#e5e5e5;stroke-linecap:square"
                   id="path14" /></g><g
                 id="text_1"><!-- -2 --><g
                   style="fill:#4d4d4d"
                   transform="matrix(0.09,0,0,-0.09,103.63815,339.12028)"
                   id="g25"><defs
                     id="defs19"><path
                       id="DejaVuSans-2d"
                       d="M 313,2009 H 1997 V 1497 H 313 Z"
                       transform="scale(0.015625)" /><path
                       id="DejaVuSans-32"
                       d="M 1228,531 H 3431 V 0 H 469 v 531 q 359,372 979,998 621,627 780,809 303,340 423,576 121,236 121,464 0,372 -261,606 -261,235 -680,235 -297,0 -627,-103 -329,-103 -704,-313 v 638 q 381,153 712,231 332,78 607,78 725,0 1156,-363 431,-362 431,-968 0,-288 -108,-546 -107,-257 -392,-607 -78,-91 -497,-524 Q 1991,1309 1228,531 Z"
                       transform="scale(0.015625)" /></defs><path
                     id="use21"
                     d="m 4.890625,31.390625 h 26.3125 v -8 h -26.3125 z"
                     style="stroke-width:0.015625" /><path
                     id="use23"
                     d="M 55.271484,8.296875 H 89.693359 V 0 h -46.28125 v 8.296875 q 5.609375,5.8125 15.296875,15.59375 9.703125,9.796875 12.1875,12.640625 4.734375,5.3125 6.609375,9 1.890625,3.6875 1.890625,7.25 0,5.8125 -4.078125,9.46875 -4.078125,3.671875 -10.625,3.671875 -4.640625,0 -9.796875,-1.609375 -5.140625,-1.609375 -11,-4.890625 v 9.96875 q 5.953125,2.390625 11.125,3.609375 5.1875,1.21875 9.484375,1.21875 11.328125,0 18.0625,-5.671875 6.734375,-5.65625 6.734375,-15.125 0,-4.5 -1.6875,-8.53125 -1.671875,-4.015625 -6.125,-9.484375 -1.21875,-1.421875 -7.765625,-8.1875 -6.53125,-6.765625 -18.453125,-18.921875 z"
                     style="stroke-width:0.015625" /></g></g></g><g
               id="xtick_2"><g
                 id="line2d_2"><path
                   d="M 239.47091,330.08169 V 34.76625"
                   clip-path="url(#p4822f61215)"
                   style="fill:none;stroke:#e5e5e5;stroke-linecap:square"
                   id="path29" /></g><g
                 id="text_2"><!-- 0 --><g
                   style="fill:#4d4d4d"
                   transform="matrix(0.09,0,0,-0.09,236.60778,339.12028)"
                   id="g37"><defs
                     id="defs33"><path
                       id="DejaVuSans-30"
                       d="m 2034,4250 q -487,0 -733,-480 -245,-479 -245,-1442 0,-959 245,-1439 246,-480 733,-480 491,0 736,480 246,480 246,1439 0,963 -246,1442 -245,480 -736,480 z m 0,500 q 785,0 1199,-621 414,-620 414,-1801 0,-1178 -414,-1799 -414,-620 -1199,-620 -784,0 -1198,620 -414,621 -414,1799 0,1181 414,1801 414,621 1198,621 z"
                       transform="scale(0.015625)" /></defs><path
                     id="use35"
                     d="m 31.78125,66.40625 q -7.609375,0 -11.453125,-7.5 Q 16.5,51.421875 16.5,36.375 q 0,-14.984375 3.828125,-22.484375 3.84375,-7.5 11.453125,-7.5 7.671875,0 11.5,7.5 3.84375,7.5 3.84375,22.484375 0,15.046875 -3.84375,22.53125 -3.828125,7.5 -11.5,7.5 z m 0,7.8125 q 12.265625,0 18.734375,-9.703125 6.46875,-9.6875 6.46875,-28.140625 0,-18.40625 -6.46875,-28.109375 -6.46875,-9.6875 -18.734375,-9.6875 -12.25,0 -18.71875,9.6875 Q 6.59375,17.96875 6.59375,36.375 q 0,18.453125 6.46875,28.140625 6.46875,9.703125 18.71875,9.703125 z"
                     style="stroke-width:0.015625" /></g></g></g><g
               id="xtick_3"><g
                 id="line2d_3"><path
                   d="M 370.81702,330.08169 V 34.76625"
                   clip-path="url(#p4822f61215)"
                   style="fill:none;stroke:#e5e5e5;stroke-linecap:square"
                   id="path41" /></g><g
                 id="text_3"><!-- 2 --><g
                   style="fill:#4d4d4d"
                   transform="matrix(0.09,0,0,-0.09,367.9539,339.12028)"
                   id="g46"><path
                     id="use44"
                     d="M 19.1875,8.296875 H 53.609375 V 0 H 7.328125 v 8.296875 q 5.609375,5.8125 15.296875,15.59375 9.703125,9.796875 12.1875,12.640625 4.734375,5.3125 6.609375,9 1.890625,3.6875 1.890625,7.25 0,5.8125 -4.078125,9.46875 -4.078125,3.671875 -10.625,3.671875 -4.640625,0 -9.796875,-1.609375 -5.140625,-1.609375 -11,-4.890625 v 9.96875 Q 13.765625,71.78125 18.9375,73 q 5.1875,1.21875 9.484375,1.21875 11.328125,0 18.0625,-5.671875 6.734375,-5.65625 6.734375,-15.125 0,-4.5 -1.6875,-8.53125 Q 49.859375,40.875 45.40625,35.40625 44.1875,33.984375 37.640625,27.21875 31.109375,20.453125 19.1875,8.296875 Z"
                     style="stroke-width:0.015625" /></g></g></g><g
               id="xtick_4"><g
                 id="line2d_4"><path
                   d="M 42.45173,330.08169 V 34.76625"
                   clip-path="url(#p4822f61215)"
                   style="fill:none;stroke:#fafafa;stroke-width:0.5;stroke-linecap:square"
                   id="path50" /></g></g><g
               id="xtick_5"><g
                 id="line2d_5"><path
                   d="M 173.79785,330.08169 V 34.76625"
                   clip-path="url(#p4822f61215)"
                   style="fill:none;stroke:#fafafa;stroke-width:0.5;stroke-linecap:square"
                   id="path54" /></g></g><g
               id="xtick_6"><g
                 id="line2d_6"><path
                   d="M 305.14396,330.08169 V 34.76625"
                   clip-path="url(#p4822f61215)"
                   style="fill:none;stroke:#fafafa;stroke-width:0.5;stroke-linecap:square"
                   id="path58" /></g></g><g
               id="xtick_7"><g
                 id="line2d_7"><path
                   d="M 436.49008,330.08169 V 34.76625"
                   clip-path="url(#p4822f61215)"
                   style="fill:none;stroke:#fafafa;stroke-width:0.5;stroke-linecap:square"
                   id="path62" /></g></g></g><g
             id="matplotlib.axis_2"><g
               id="ytick_1"><g
                 id="line2d_8"><path
                   d="M 22.749813,316.65826 H 456.192"
                   clip-path="url(#p4822f61215)"
                   style="fill:none;stroke:#e5e5e5;stroke-linecap:square"
                   id="path67" /></g><g
                 id="text_4"><!-- 0 --><g
                   style="fill:#4d4d4d"
                   transform="matrix(0.09,0,0,-0.09,14.823563,320.07756)"
                   id="g72"><path
                     id="use70"
                     d="m 31.78125,66.40625 q -7.609375,0 -11.453125,-7.5 Q 16.5,51.421875 16.5,36.375 q 0,-14.984375 3.828125,-22.484375 3.84375,-7.5 11.453125,-7.5 7.671875,0 11.5,7.5 3.84375,7.5 3.84375,22.484375 0,15.046875 -3.84375,22.53125 -3.828125,7.5 -11.5,7.5 z m 0,7.8125 q 12.265625,0 18.734375,-9.703125 6.46875,-9.6875 6.46875,-28.140625 0,-18.40625 -6.46875,-28.109375 -6.46875,-9.6875 -18.734375,-9.6875 -12.25,0 -18.71875,9.6875 Q 6.59375,17.96875 6.59375,36.375 q 0,18.453125 6.46875,28.140625 6.46875,9.703125 18.71875,9.703125 z"
                     style="stroke-width:0.015625" /></g></g></g><g
               id="ytick_2"><g
                 id="line2d_9"><path
                   d="M 22.749813,227.16873 H 456.192"
                   clip-path="url(#p4822f61215)"
                   style="fill:none;stroke:#e5e5e5;stroke-linecap:square"
                   id="path76" /></g><g
                 id="text_5"><!-- 1 --><g
                   style="fill:#4d4d4d"
                   transform="matrix(0.09,0,0,-0.09,14.823563,230.58803)"
                   id="g84"><defs
                     id="defs80"><path
                       id="DejaVuSans-31"
                       d="M 794,531 H 1825 V 4091 L 703,3866 v 575 l 1116,225 h 631 V 531 H 3481 V 0 H 794 Z"
                       transform="scale(0.015625)" /></defs><path
                     id="use82"
                     d="m 12.40625,8.296875 h 16.109375 v 55.625 L 10.984375,60.40625 v 8.984375 l 17.4375,3.515625 H 38.28125 V 8.296875 H 54.390625 V 0 H 12.40625 Z"
                     style="stroke-width:0.015625" /></g></g></g><g
               id="ytick_3"><g
                 id="line2d_10"><path
                   d="M 22.749813,137.6792 H 456.192"
                   clip-path="url(#p4822f61215)"
                   style="fill:none;stroke:#e5e5e5;stroke-linecap:square"
                   id="path88" /></g><g
                 id="text_6"><!-- 2 --><g
                   style="fill:#4d4d4d"
                   transform="matrix(0.09,0,0,-0.09,14.823563,141.0985)"
                   id="g93"><path
                     id="use91"
                     d="M 19.1875,8.296875 H 53.609375 V 0 H 7.328125 v 8.296875 q 5.609375,5.8125 15.296875,15.59375 9.703125,9.796875 12.1875,12.640625 4.734375,5.3125 6.609375,9 1.890625,3.6875 1.890625,7.25 0,5.8125 -4.078125,9.46875 -4.078125,3.671875 -10.625,3.671875 -4.640625,0 -9.796875,-1.609375 -5.140625,-1.609375 -11,-4.890625 v 9.96875 Q 13.765625,71.78125 18.9375,73 q 5.1875,1.21875 9.484375,1.21875 11.328125,0 18.0625,-5.671875 6.734375,-5.65625 6.734375,-15.125 0,-4.5 -1.6875,-8.53125 Q 49.859375,40.875 45.40625,35.40625 44.1875,33.984375 37.640625,27.21875 31.109375,20.453125 19.1875,8.296875 Z"
                     style="stroke-width:0.015625" /></g></g></g><g
               id="ytick_4"><g
                 id="line2d_11"><path
                   d="M 22.749813,48.189679 H 456.192"
                   clip-path="url(#p4822f61215)"
                   style="fill:none;stroke:#e5e5e5;stroke-linecap:square"
                   id="path97" /></g><g
                 id="text_7"><!-- 3 --><g
                   style="fill:#4d4d4d"
                   transform="matrix(0.09,0,0,-0.09,14.823563,51.608976)"
                   id="g105"><defs
                     id="defs101"><path
                       id="DejaVuSans-33"
                       d="m 2597,2516 q 453,-97 707,-404 255,-306 255,-756 0,-690 -475,-1069 -475,-378 -1350,-378 -293,0 -604,58 -311,58 -642,174 v 609 q 262,-153 574,-231 313,-78 654,-78 593,0 904,234 311,234 311,681 0,413 -289,645 -289,233 -804,233 h -544 v 519 h 569 q 465,0 712,186 247,186 247,536 0,359 -255,551 -254,193 -729,193 -260,0 -557,-57 -297,-56 -653,-174 v 562 q 360,100 674,150 314,50 592,50 719,0 1137,-327 419,-326 419,-882 0,-388 -222,-655 -222,-267 -631,-370 z"
                       transform="scale(0.015625)" /></defs><path
                     id="use103"
                     d="M 40.578125,39.3125 Q 47.65625,37.796875 51.625,33 q 3.984375,-4.78125 3.984375,-11.8125 0,-10.78125 -7.421875,-16.703125 -7.421875,-5.90625 -21.09375,-5.90625 -4.578125,0 -9.4375,0.90625 -4.859375,0.90625 -10.03125,2.71875 v 9.515625 q 4.09375,-2.390625 8.96875,-3.609375 4.890625,-1.21875 10.21875,-1.21875 9.265625,0 14.125,3.65625 4.859375,3.65625 4.859375,10.640625 0,6.453125 -4.515625,10.078125 -4.515625,3.640625 -12.5625,3.640625 h -8.5 v 8.109375 h 8.890625 q 7.265625,0 11.125,2.90625 3.859375,2.90625 3.859375,8.375 0,5.609375 -3.984375,8.609375 -3.96875,3.015625 -11.390625,3.015625 -4.0625,0 -8.703125,-0.890625 Q 15.375,64.15625 9.8125,62.3125 v 8.78125 q 5.625,1.5625 10.53125,2.34375 4.90625,0.78125 9.25,0.78125 11.234375,0 17.765625,-5.109375 6.546875,-5.09375 6.546875,-13.78125 0,-6.0625 -3.46875,-10.234375 -3.46875,-4.171875 -9.859375,-5.78125 z"
                     style="stroke-width:0.015625" /></g></g></g><g
               id="ytick_5"><g
                 id="line2d_12"><path
                   d="M 22.749813,271.91349 H 456.192"
                   clip-path="url(#p4822f61215)"
                   style="fill:none;stroke:#fafafa;stroke-width:0.5;stroke-linecap:square"
                   id="path109" /></g></g><g
               id="ytick_6"><g
                 id="line2d_13"><path
                   d="M 22.749813,182.42397 H 456.192"
                   clip-path="url(#p4822f61215)"
                   style="fill:none;stroke:#fafafa;stroke-width:0.5;stroke-linecap:square"
                   id="path113" /></g></g><g
               id="ytick_7"><g
                 id="line2d_14"><path
                   d="M 22.749813,92.934442 H 456.192"
                   clip-path="url(#p4822f61215)"
                   style="fill:none;stroke:#fafafa;stroke-width:0.5;stroke-linecap:square"
                   id="path117" /></g></g></g><g
             id="line2d_15"><path
               d="m 42.45173,316.65826 h 65.67306 65.67306 65.67306 l 65.67305,-89.48953 65.67306,-89.48953 65.67306,-89.489521"
               clip-path="url(#p4822f61215)"
               style="fill:none;stroke:#1d2951;stroke-width:1.77245"
               id="path122" /></g></g><g
           id="text_8"><!-- ReLU --><g
             transform="matrix(0.132,0,0,-0.132,222.94306,27.413063)"
             id="g140"><defs
               id="defs130"><path
                 id="DejaVuSans-52"
                 d="m 2841,2188 q 203,-69 395,-294 192,-225 386,-619 L 4263,0 h -679 l -596,1197 q -232,469 -449,622 -217,153 -592,153 H 1259 V 0 H 628 v 4666 h 1425 q 800,0 1194,-335 394,-334 394,-1009 0,-441 -205,-732 -205,-290 -595,-402 z M 1259,4147 V 2491 h 794 q 456,0 689,211 233,211 233,620 0,409 -233,617 -233,208 -689,208 z"
                 transform="scale(0.015625)" /><path
                 id="DejaVuSans-65"
                 d="M 3597,1894 V 1613 H 953 q 38,-594 358,-905 320,-311 892,-311 331,0 642,81 311,81 618,244 V 178 Q 3153,47 2828,-22 2503,-91 2169,-91 1331,-91 842,396 353,884 353,1716 q 0,859 464,1363 464,505 1252,505 706,0 1117,-455 411,-454 411,-1235 z m -575,169 q -6,471 -264,752 -258,282 -683,282 -481,0 -770,-272 -289,-272 -333,-766 z"
                 transform="scale(0.015625)" /><path
                 id="DejaVuSans-4c"
                 d="m 628,4666 h 631 V 531 H 3531 V 0 H 628 Z"
                 transform="scale(0.015625)" /><path
                 id="DejaVuSans-55"
                 d="m 556,4666 h 635 V 1831 q 0,-750 271,-1080 272,-329 882,-329 606,0 878,329 272,330 272,1080 v 2835 h 634 V 1753 Q 4128,841 3676,375 3225,-91 2344,-91 1459,-91 1007,375 556,841 556,1753 Z"
                 transform="scale(0.015625)" /></defs><path
               id="use132"
               d="m 44.390625,34.1875 q 3.171875,-1.078125 6.171875,-4.59375 3,-3.515625 6.03125,-9.671875 L 66.609375,0 H 56 l -9.3125,18.703125 q -3.625,7.328125 -7.015625,9.71875 -3.390625,2.390625 -9.25,2.390625 h -10.75 V 0 H 9.8125 v 72.90625 h 22.265625 q 12.5,0 18.65625,-5.234375 6.15625,-5.21875 6.15625,-15.765625 0,-6.890625 -3.203125,-11.4375 -3.203125,-4.53125 -9.296875,-6.28125 z m -24.71875,30.609375 v -25.875 h 12.40625 q 7.125,0 10.765625,3.296875 3.640625,3.296875 3.640625,9.6875 0,6.390625 -3.640625,9.640625 -3.640625,3.25 -10.765625,3.25 z"
               style="stroke-width:0.015625" /><path
               id="use134"
               d="M 121.18555,29.59375 V 25.203125 H 79.873047 q 0.59375,-9.28125 5.59375,-14.140625 5,-4.859375 13.9375,-4.859375 5.171873,0 10.031253,1.265625 4.85937,1.265625 9.65625,3.8125 v -8.5 q -4.84375,-2.046875 -9.92188,-3.125 -5.07812,-1.078125 -10.296873,-1.078125 -13.09375,0 -20.734375,7.609375 -7.640625,7.625 -7.640625,20.625 0,13.421875 7.25,21.296875 Q 84.998047,56 97.310547,56 q 11.031253,0 17.453123,-7.109375 6.42188,-7.09375 6.42188,-19.296875 z m -8.98438,2.640625 q -0.0937,7.359375 -4.125,11.75 -4.03125,4.40625 -10.671873,4.40625 -7.515625,0 -12.03125,-4.25 -4.515625,-4.25 -5.203125,-11.96875 z"
               style="stroke-width:0.015625" /><path
               id="use136"
               d="m 136.31836,72.90625 h 9.85937 V 8.296875 h 35.5 V 0 h -45.35937 z"
               style="stroke-width:0.015625" /><path
               id="use138"
               d="m 185.90625,72.90625 h 9.92187 V 28.609375 q 0,-11.71875 4.23438,-16.875 4.25,-5.140625 13.78125,-5.140625 9.46875,0 13.71875,5.140625 4.25,5.15625 4.25,16.875 V 72.90625 h 9.90625 V 27.390625 q 0,-14.25 -7.0625,-21.53125 -7.04688,-7.28125 -20.8125,-7.28125 -13.82813,0 -20.89063,7.28125 -7.04687,7.28125 -7.04687,21.53125 z"
               style="stroke-width:0.015625" /></g></g><g
           id="text_9"><!-- A --><g
             transform="matrix(0.132,0,0,-0.132,4.608,14.637938)"
             id="g148"><defs
               id="defs144"><path
                 id="DejaVuSans-Bold-41"
                 d="M 3419,850 H 1538 L 1241,0 H 31 L 1759,4666 H 3194 L 4922,0 H 3713 Z m -1581,866 h 1278 l -638,1856 z"
                 transform="scale(0.015625)" /></defs><path
               id="use146"
               d="M 53.421875,13.28125 H 24.03125 L 19.390625,0 H 0.484375 l 27,72.90625 H 49.90625 L 76.90625,0 H 58.015625 Z M 28.71875,26.8125 H 48.6875 l -9.96875,29 z"
               style="stroke-width:0.015625" /></g></g></g><g
         id="figure_1-9"
         transform="translate(475.47322,0.5)"
         inkscape:label="Figure B"><g
           id="patch_1-9"><path
             d="M 0,345.6 H 460.8 V 0 H 0 Z"
             style="fill:#ffffff"
             id="path465" /></g><g
           id="patch_2-7"><path
             d="M 0,345.6 H 460.8 V 0 H 0 Z"
             style="fill:#ffffff;stroke:#ffffff;stroke-linejoin:miter"
             id="path468" /></g><g
           id="axes_1-2"><g
             id="matplotlib.axis_1-6"><g
               id="xtick_1-6"><g
                 id="line2d_1-3"><path
                   d="M 108.00057,330.08169 V 34.76625"
                   clip-path="url(#p4d89f6c417)"
                   style="fill:none;stroke:#e5e5e5;stroke-linecap:square"
                   id="path471" /></g><g
                 id="text_1-3"><!-- -2 --><g
                   style="fill:#4d4d4d"
                   transform="matrix(0.09,0,0,-0.09,103.51393,339.12028)"
                   id="g482"><defs
                     id="defs476"><path
                       id="path657"
                       d="M 313,2009 H 1997 V 1497 H 313 Z"
                       transform="scale(0.015625)" /><path
                       id="path659"
                       d="M 1228,531 H 3431 V 0 H 469 v 531 q 359,372 979,998 621,627 780,809 303,340 423,576 121,236 121,464 0,372 -261,606 -261,235 -680,235 -297,0 -627,-103 -329,-103 -704,-313 v 638 q 381,153 712,231 332,78 607,78 725,0 1156,-363 431,-362 431,-968 0,-288 -108,-546 -107,-257 -392,-607 -78,-91 -497,-524 Q 1991,1309 1228,531 Z"
                       transform="scale(0.015625)" /></defs><path
                     id="use478"
                     d="m 4.890625,31.390625 h 26.3125 v -8 h -26.3125 z"
                     style="stroke-width:0.015625" /><path
                     id="use480"
                     d="M 55.271484,8.296875 H 89.693359 V 0 h -46.28125 v 8.296875 q 5.609375,5.8125 15.296875,15.59375 9.703125,9.796875 12.1875,12.640625 4.734375,5.3125 6.609375,9 1.890625,3.6875 1.890625,7.25 0,5.8125 -4.078125,9.46875 -4.078125,3.671875 -10.625,3.671875 -4.640625,0 -9.796875,-1.609375 -5.140625,-1.609375 -11,-4.890625 v 9.96875 q 5.953125,2.390625 11.125,3.609375 5.1875,1.21875 9.484375,1.21875 11.328125,0 18.0625,-5.671875 6.734375,-5.65625 6.734375,-15.125 0,-4.5 -1.6875,-8.53125 -1.671875,-4.015625 -6.125,-9.484375 -1.21875,-1.421875 -7.765625,-8.1875 -6.53125,-6.765625 -18.453125,-18.921875 z"
                     style="stroke-width:0.015625" /></g></g></g><g
               id="xtick_2-2"><g
                 id="line2d_2-6"><path
                   d="M 239.39356,330.08169 V 34.76625"
                   clip-path="url(#p4d89f6c417)"
                   style="fill:none;stroke:#e5e5e5;stroke-linecap:square"
                   id="path486" /></g><g
                 id="text_2-2"><!-- 0 --><g
                   style="fill:#4d4d4d"
                   transform="matrix(0.09,0,0,-0.09,236.53044,339.12028)"
                   id="g494"><defs
                     id="defs490"><path
                       id="path669"
                       d="m 2034,4250 q -487,0 -733,-480 -245,-479 -245,-1442 0,-959 245,-1439 246,-480 733,-480 491,0 736,480 246,480 246,1439 0,963 -246,1442 -245,480 -736,480 z m 0,500 q 785,0 1199,-621 414,-620 414,-1801 0,-1178 -414,-1799 -414,-620 -1199,-620 -784,0 -1198,620 -414,621 -414,1799 0,1181 414,1801 414,621 1198,621 z"
                       transform="scale(0.015625)" /></defs><path
                     id="use492"
                     d="m 31.78125,66.40625 q -7.609375,0 -11.453125,-7.5 Q 16.5,51.421875 16.5,36.375 q 0,-14.984375 3.828125,-22.484375 3.84375,-7.5 11.453125,-7.5 7.671875,0 11.5,7.5 3.84375,7.5 3.84375,22.484375 0,15.046875 -3.84375,22.53125 -3.828125,7.5 -11.5,7.5 z m 0,7.8125 q 12.265625,0 18.734375,-9.703125 6.46875,-9.6875 6.46875,-28.140625 0,-18.40625 -6.46875,-28.109375 -6.46875,-9.6875 -18.734375,-9.6875 -12.25,0 -18.71875,9.6875 Q 6.59375,17.96875 6.59375,36.375 q 0,18.453125 6.46875,28.140625 6.46875,9.703125 18.71875,9.703125 z"
                     style="stroke-width:0.015625" /></g></g></g><g
               id="xtick_3-1"><g
                 id="line2d_3-2"><path
                   d="M 370.78656,330.08169 V 34.76625"
                   clip-path="url(#p4d89f6c417)"
                   style="fill:none;stroke:#e5e5e5;stroke-linecap:square"
                   id="path498" /></g><g
                 id="text_3-4"><!-- 2 --><g
                   style="fill:#4d4d4d"
                   transform="matrix(0.09,0,0,-0.09,367.92343,339.12028)"
                   id="g503"><path
                     id="use501"
                     d="M 19.1875,8.296875 H 53.609375 V 0 H 7.328125 v 8.296875 q 5.609375,5.8125 15.296875,15.59375 9.703125,9.796875 12.1875,12.640625 4.734375,5.3125 6.609375,9 1.890625,3.6875 1.890625,7.25 0,5.8125 -4.078125,9.46875 -4.078125,3.671875 -10.625,3.671875 -4.640625,0 -9.796875,-1.609375 -5.140625,-1.609375 -11,-4.890625 v 9.96875 Q 13.765625,71.78125 18.9375,73 q 5.1875,1.21875 9.484375,1.21875 11.328125,0 18.0625,-5.671875 6.734375,-5.65625 6.734375,-15.125 0,-4.5 -1.6875,-8.53125 Q 49.859375,40.875 45.40625,35.40625 44.1875,33.984375 37.640625,27.21875 31.109375,20.453125 19.1875,8.296875 Z"
                     style="stroke-width:0.015625" /></g></g></g><g
               id="xtick_4-1"><g
                 id="line2d_4-0"><path
                   d="M 42.304074,330.08169 V 34.76625"
                   clip-path="url(#p4d89f6c417)"
                   style="fill:none;stroke:#fafafa;stroke-width:0.5;stroke-linecap:square"
                   id="path507" /></g></g><g
               id="xtick_5-6"><g
                 id="line2d_5-8"><path
                   d="M 173.69707,330.08169 V 34.76625"
                   clip-path="url(#p4d89f6c417)"
                   style="fill:none;stroke:#fafafa;stroke-width:0.5;stroke-linecap:square"
                   id="path511" /></g></g><g
               id="xtick_6-0"><g
                 id="line2d_6-9"><path
                   d="M 305.09006,330.08169 V 34.76625"
                   clip-path="url(#p4d89f6c417)"
                   style="fill:none;stroke:#fafafa;stroke-width:0.5;stroke-linecap:square"
                   id="path515" /></g></g><g
               id="xtick_7-4"><g
                 id="line2d_7-7"><path
                   d="M 436.48305,330.08169 V 34.76625"
                   clip-path="url(#p4d89f6c417)"
                   style="fill:none;stroke:#fafafa;stroke-width:0.5;stroke-linecap:square"
                   id="path519" /></g></g></g><g
             id="matplotlib.axis_2-8"><g
               id="ytick_1-4"><g
                 id="line2d_8-4"><path
                   d="M 22.595125,303.87404 H 456.192"
                   clip-path="url(#p4d89f6c417)"
                   style="fill:none;stroke:#e5e5e5;stroke-linecap:square"
                   id="path524" /></g><g
                 id="text_4-5"><!-- 0 --><g
                   style="fill:#4d4d4d"
                   transform="matrix(0.09,0,0,-0.09,14.668875,307.29334)"
                   id="g529"><path
                     id="use527"
                     d="m 31.78125,66.40625 q -7.609375,0 -11.453125,-7.5 Q 16.5,51.421875 16.5,36.375 q 0,-14.984375 3.828125,-22.484375 3.84375,-7.5 11.453125,-7.5 7.671875,0 11.5,7.5 3.84375,7.5 3.84375,22.484375 0,15.046875 -3.84375,22.53125 -3.828125,7.5 -11.5,7.5 z m 0,7.8125 q 12.265625,0 18.734375,-9.703125 6.46875,-9.6875 6.46875,-28.140625 0,-18.40625 -6.46875,-28.109375 -6.46875,-9.6875 -18.734375,-9.6875 -12.25,0 -18.71875,9.6875 Q 6.59375,17.96875 6.59375,36.375 q 0,18.453125 6.46875,28.140625 6.46875,9.703125 18.71875,9.703125 z"
                     style="stroke-width:0.015625" /></g></g></g><g
               id="ytick_2-8"><g
                 id="line2d_9-2"><path
                   d="M 22.595125,218.64592 H 456.192"
                   clip-path="url(#p4d89f6c417)"
                   style="fill:none;stroke:#e5e5e5;stroke-linecap:square"
                   id="path533" /></g><g
                 id="text_5-4"><!-- 1 --><g
                   style="fill:#4d4d4d"
                   transform="matrix(0.09,0,0,-0.09,14.668875,222.06522)"
                   id="g541"><defs
                     id="defs537"><path
                       id="path703"
                       d="M 794,531 H 1825 V 4091 L 703,3866 v 575 l 1116,225 h 631 V 531 H 3481 V 0 H 794 Z"
                       transform="scale(0.015625)" /></defs><path
                     id="use539"
                     d="m 12.40625,8.296875 h 16.109375 v 55.625 L 10.984375,60.40625 v 8.984375 l 17.4375,3.515625 H 38.28125 V 8.296875 H 54.390625 V 0 H 12.40625 Z"
                     style="stroke-width:0.015625" /></g></g></g><g
               id="ytick_3-9"><g
                 id="line2d_10-5"><path
                   d="M 22.595125,133.4178 H 456.192"
                   clip-path="url(#p4d89f6c417)"
                   style="fill:none;stroke:#e5e5e5;stroke-linecap:square"
                   id="path545" /></g><g
                 id="text_6-3"><!-- 2 --><g
                   style="fill:#4d4d4d"
                   transform="matrix(0.09,0,0,-0.09,14.668875,136.8371)"
                   id="g550"><path
                     id="use548"
                     d="M 19.1875,8.296875 H 53.609375 V 0 H 7.328125 v 8.296875 q 5.609375,5.8125 15.296875,15.59375 9.703125,9.796875 12.1875,12.640625 4.734375,5.3125 6.609375,9 1.890625,3.6875 1.890625,7.25 0,5.8125 -4.078125,9.46875 -4.078125,3.671875 -10.625,3.671875 -4.640625,0 -9.796875,-1.609375 -5.140625,-1.609375 -11,-4.890625 v 9.96875 Q 13.765625,71.78125 18.9375,73 q 5.1875,1.21875 9.484375,1.21875 11.328125,0 18.0625,-5.671875 6.734375,-5.65625 6.734375,-15.125 0,-4.5 -1.6875,-8.53125 Q 49.859375,40.875 45.40625,35.40625 44.1875,33.984375 37.640625,27.21875 31.109375,20.453125 19.1875,8.296875 Z"
                     style="stroke-width:0.015625" /></g></g></g><g
               id="ytick_4-3"><g
                 id="line2d_11-9"><path
                   d="M 22.595125,48.189679 H 456.192"
                   clip-path="url(#p4d89f6c417)"
                   style="fill:none;stroke:#e5e5e5;stroke-linecap:square"
                   id="path554" /></g><g
                 id="text_7-6"><!-- 3 --><g
                   style="fill:#4d4d4d"
                   transform="matrix(0.09,0,0,-0.09,14.668875,51.608976)"
                   id="g562"><defs
                     id="defs558"><path
                       id="path718"
                       d="m 2597,2516 q 453,-97 707,-404 255,-306 255,-756 0,-690 -475,-1069 -475,-378 -1350,-378 -293,0 -604,58 -311,58 -642,174 v 609 q 262,-153 574,-231 313,-78 654,-78 593,0 904,234 311,234 311,681 0,413 -289,645 -289,233 -804,233 h -544 v 519 h 569 q 465,0 712,186 247,186 247,536 0,359 -255,551 -254,193 -729,193 -260,0 -557,-57 -297,-56 -653,-174 v 562 q 360,100 674,150 314,50 592,50 719,0 1137,-327 419,-326 419,-882 0,-388 -222,-655 -222,-267 -631,-370 z"
                       transform="scale(0.015625)" /></defs><path
                     id="use560"
                     d="M 40.578125,39.3125 Q 47.65625,37.796875 51.625,33 q 3.984375,-4.78125 3.984375,-11.8125 0,-10.78125 -7.421875,-16.703125 -7.421875,-5.90625 -21.09375,-5.90625 -4.578125,0 -9.4375,0.90625 -4.859375,0.90625 -10.03125,2.71875 v 9.515625 q 4.09375,-2.390625 8.96875,-3.609375 4.890625,-1.21875 10.21875,-1.21875 9.265625,0 14.125,3.65625 4.859375,3.65625 4.859375,10.640625 0,6.453125 -4.515625,10.078125 -4.515625,3.640625 -12.5625,3.640625 h -8.5 v 8.109375 h 8.890625 q 7.265625,0 11.125,2.90625 3.859375,2.90625 3.859375,8.375 0,5.609375 -3.984375,8.609375 -3.96875,3.015625 -11.390625,3.015625 -4.0625,0 -8.703125,-0.890625 Q 15.375,64.15625 9.8125,62.3125 v 8.78125 q 5.625,1.5625 10.53125,2.34375 4.90625,0.78125 9.25,0.78125 11.234375,0 17.765625,-5.109375 6.546875,-5.09375 6.546875,-13.78125 0,-6.0625 -3.46875,-10.234375 -3.46875,-4.171875 -9.859375,-5.78125 z"
                     style="stroke-width:0.015625" /></g></g></g><g
               id="ytick_5-8"><g
                 id="line2d_12-6"><path
                   d="M 22.595125,261.25998 H 456.192"
                   clip-path="url(#p4d89f6c417)"
                   style="fill:none;stroke:#fafafa;stroke-width:0.5;stroke-linecap:square"
                   id="path566" /></g></g><g
               id="ytick_6-9"><g
                 id="line2d_13-1"><path
                   d="M 22.595125,176.03186 H 456.192"
                   clip-path="url(#p4d89f6c417)"
                   style="fill:none;stroke:#fafafa;stroke-width:0.5;stroke-linecap:square"
                   id="path570" /></g></g><g
               id="ytick_7-8"><g
                 id="line2d_14-4"><path
                   d="M 22.595125,90.803739 H 456.192"
                   clip-path="url(#p4d89f6c417)"
                   style="fill:none;stroke:#fafafa;stroke-width:0.5;stroke-linecap:square"
                   id="path574" /></g></g></g><g
             id="line2d_15-7"><path
               d="m 42.304074,316.65826 65.696496,-4.26141 65.6965,-4.2614 65.69649,-4.26141 65.6965,-85.22812 65.6965,-85.22812 65.69649,-85.228121"
               clip-path="url(#p4d89f6c417)"
               style="fill:none;stroke:#1d2951;stroke-width:1.77245"
               id="path579" /></g></g><g
           id="text_8-8"><!-- Leaky ReLU --><g
             transform="matrix(0.132,0,0,-0.132,201.61166,27.413063)"
             id="g613"><defs
               id="defs591"><path
                 id="path738"
                 d="m 628,4666 h 631 V 531 H 3531 V 0 H 628 Z"
                 transform="scale(0.015625)" /><path
                 id="path740"
                 d="M 3597,1894 V 1613 H 953 q 38,-594 358,-905 320,-311 892,-311 331,0 642,81 311,81 618,244 V 178 Q 3153,47 2828,-22 2503,-91 2169,-91 1331,-91 842,396 353,884 353,1716 q 0,859 464,1363 464,505 1252,505 706,0 1117,-455 411,-454 411,-1235 z m -575,169 q -6,471 -264,752 -258,282 -683,282 -481,0 -770,-272 -289,-272 -333,-766 z"
                 transform="scale(0.015625)" /><path
                 id="path742"
                 d="m 2194,1759 q -697,0 -966,-159 -269,-159 -269,-544 0,-306 202,-486 202,-179 548,-179 479,0 768,339 289,339 289,901 v 128 z m 1147,238 V 0 H 2766 V 531 Q 2569,213 2275,61 1981,-91 1556,-91 q -537,0 -855,302 -317,302 -317,808 0,590 395,890 396,300 1180,300 h 807 v 57 q 0,397 -261,614 -261,217 -733,217 -300,0 -585,-72 -284,-72 -546,-216 v 532 q 315,122 612,182 297,61 578,61 760,0 1135,-394 375,-393 375,-1193 z"
                 transform="scale(0.015625)" /><path
                 id="path744"
                 d="m 581,4863 h 578 V 1991 l 1716,1509 h 734 L 1753,1863 3688,0 H 2938 L 1159,1709 V 0 H 581 Z"
                 transform="scale(0.015625)" /><path
                 id="path746"
                 d="m 2059,-325 q -243,-625 -475,-815 -231,-191 -618,-191 H 506 v 481 h 338 q 237,0 368,113 132,112 291,531 L 1606,56 191,3500 H 800 L 1894,763 2988,3500 h 609 z"
                 transform="scale(0.015625)" /><path
                 id="path748"
                 transform="scale(0.015625)"
                 d="" /><path
                 id="path750"
                 d="m 2841,2188 q 203,-69 395,-294 192,-225 386,-619 L 4263,0 h -679 l -596,1197 q -232,469 -449,622 -217,153 -592,153 H 1259 V 0 H 628 v 4666 h 1425 q 800,0 1194,-335 394,-334 394,-1009 0,-441 -205,-732 -205,-290 -595,-402 z M 1259,4147 V 2491 h 794 q 456,0 689,211 233,211 233,620 0,409 -233,617 -233,208 -689,208 z"
                 transform="scale(0.015625)" /><path
                 id="path752"
                 d="m 556,4666 h 635 V 1831 q 0,-750 271,-1080 272,-329 882,-329 606,0 878,329 272,330 272,1080 v 2835 h 634 V 1753 Q 4128,841 3676,375 3225,-91 2344,-91 1459,-91 1007,375 556,841 556,1753 Z"
                 transform="scale(0.015625)" /></defs><path
               id="use593"
               d="m 9.8125,72.90625 h 9.859375 V 8.296875 h 35.5 V 0 H 9.8125 Z"
               style="stroke-width:0.015625" /><path
               id="use595"
               d="M 110.16602,29.59375 V 25.203125 H 68.853516 q 0.59375,-9.28125 5.59375,-14.140625 5,-4.859375 13.9375,-4.859375 5.171875,0 10.03125,1.265625 4.859374,1.265625 9.656254,3.8125 v -8.5 q -4.84375,-2.046875 -9.921879,-3.125 -5.078125,-1.078125 -10.296875,-1.078125 -13.09375,0 -20.734375,7.609375 -7.640625,7.625 -7.640625,20.625 0,13.421875 7.25,21.296875 Q 73.978516,56 86.291016,56 q 11.03125,0 17.453124,-7.109375 6.42188,-7.09375 6.42188,-19.296875 z m -8.98438,2.640625 q -0.0937,7.359375 -4.124999,11.75 -4.03125,4.40625 -10.671875,4.40625 -7.515625,0 -12.03125,-4.25 -4.515625,-4.25 -5.203125,-11.96875 z"
               style="stroke-width:0.015625" /><path
               id="use597"
               d="m 149.76758,27.484375 q -10.89063,0 -15.09375,-2.484375 -4.20313,-2.484375 -4.20313,-8.5 0,-4.78125 3.15625,-7.59375 3.15625,-2.796875 8.5625,-2.796875 7.48438,0 12,5.296875 4.51563,5.296875 4.51563,14.078125 v 2 z m 17.92187,3.71875 V 0 h -8.98437 v 8.296875 q -3.07813,-4.96875 -7.67188,-7.34375 -4.59375,-2.375 -11.23437,-2.375 -8.39063,0 -13.35938,4.71875 -4.95312,4.71875 -4.95312,12.625 0,9.21875 6.17187,13.90625 6.1875,4.6875 18.4375,4.6875 h 12.60938 v 0.890625 q 0,6.203125 -4.07813,9.59375 -4.07812,3.390625 -11.45312,3.390625 -4.6875,0 -9.14063,-1.125 -4.4375,-1.125 -8.53125,-3.375 v 8.3125 q 4.92188,1.90625 9.5625,2.84375 Q 139.70508,56 144.0957,56 q 11.875,0 17.73438,-6.15625 5.85937,-6.140625 5.85937,-18.640625 z"
               style="stroke-width:0.015625" /><path
               id="use599"
               d="m 185.84375,75.984375 h 9.03125 v -44.875 L 221.6875,54.6875 h 11.46875 l -29,-25.578125 L 234.39062,0 H 222.67187 L 194.875,26.703125 V 0 h -9.03125 z"
               style="stroke-width:0.015625" /><path
               id="use601"
               d="m 263.22266,-5.078125 q -3.79688,-9.765625 -7.42188,-12.734375 -3.60938,-2.984375 -9.65625,-2.984375 h -7.1875 v 7.515625 h 5.28125 q 3.70312,0 5.75,1.765625 2.0625,1.75 4.54687,8.296875 l 1.60938,4.09375 -22.10938,53.8125 h 9.51563 L 260.64453,11.921875 277.73828,54.6875 h 9.51563 z"
               style="stroke-width:0.015625" /><path
               id="use603"
               d=""
               style="stroke-width:0.015625" /><path
               id="use605"
               d="m 366.4082,34.1875 q 3.17188,-1.078125 6.17188,-4.59375 3,-3.515625 6.03125,-9.671875 L 388.62695,0 h -10.60937 l -9.3125,18.703125 q -3.625,7.328125 -7.01563,9.71875 -3.39062,2.390625 -9.25,2.390625 h -10.75 V 0 h -9.85937 v 72.90625 h 22.26562 q 12.5,0 18.65625,-5.234375 6.15625,-5.21875 6.15625,-15.765625 0,-6.890625 -3.20312,-11.4375 -3.20313,-4.53125 -9.29688,-6.28125 z m -24.71875,30.609375 v -25.875 h 12.40625 q 7.125,0 10.76563,3.296875 3.64062,3.296875 3.64062,9.6875 0,6.390625 -3.64062,9.640625 -3.64063,3.25 -10.76563,3.25 z"
               style="stroke-width:0.015625" /><path
               id="use607"
               d="m 443.20312,29.59375 v -4.390625 h -41.3125 q 0.59375,-9.28125 5.59375,-14.140625 5,-4.859375 13.9375,-4.859375 5.17188,0 10.03125,1.265625 4.85938,1.265625 9.65625,3.8125 v -8.5 q -4.84375,-2.046875 -9.92187,-3.125 -5.07813,-1.078125 -10.29688,-1.078125 -13.09375,0 -20.73437,7.609375 -7.64063,7.625 -7.64063,20.625 0,13.421875 7.25,21.296875 Q 407.01562,56 419.32812,56 q 11.03125,0 17.45313,-7.109375 6.42187,-7.09375 6.42187,-19.296875 z m -8.98437,2.640625 q -0.0937,7.359375 -4.125,11.75 -4.03125,4.40625 -10.67188,4.40625 -7.51562,0 -12.03125,-4.25 -4.51562,-4.25 -5.20312,-11.96875 z"
               style="stroke-width:0.015625" /><path
               id="use609"
               d="m 458.33594,72.90625 h 9.85937 V 8.296875 h 35.5 V 0 h -45.35937 z"
               style="stroke-width:0.015625" /><path
               id="use611"
               d="m 507.92383,72.90625 h 9.92187 V 28.609375 q 0,-11.71875 4.23438,-16.875 4.25,-5.140625 13.78125,-5.140625 9.46875,0 13.71875,5.140625 4.25,5.15625 4.25,16.875 V 72.90625 h 9.90625 V 27.390625 q 0,-14.25 -7.0625,-21.53125 -7.04688,-7.28125 -20.8125,-7.28125 -13.82813,0 -20.89063,7.28125 -7.04687,7.28125 -7.04687,21.53125 z"
               style="stroke-width:0.015625" /></g></g><g
           id="text_9-0"><!-- B --><g
             transform="matrix(0.132,0,0,-0.132,4.608,14.637938)"
             id="g621"><defs
               id="defs617"><path
                 id="path767"
                 d="m 2456,2859 q 285,0 431,125 147,125 147,369 0,241 -147,367 -146,127 -431,127 h -665 v -988 z m 41,-2040 q 362,0 545,153 183,153 183,462 0,304 -181,455 -181,152 -547,152 H 1791 V 819 Z m 1119,1678 q 387,-113 599,-416 213,-303 213,-743 Q 4428,663 3972,331 3516,0 2584,0 H 588 v 4666 h 1806 q 972,0 1408,-294 436,-294 436,-941 0,-340 -160,-579 -159,-239 -462,-355 z"
                 transform="scale(0.015625)" /></defs><path
               id="use619"
               d="m 38.375,44.671875 q 4.453125,0 6.734375,1.953125 2.296875,1.953125 2.296875,5.765625 0,3.765625 -2.296875,5.734375 -2.28125,1.984375 -6.734375,1.984375 H 27.984375 v -15.4375 z m 0.640625,-31.875 q 5.65625,0 8.515625,2.390625 2.859375,2.390625 2.859375,7.21875 0,4.75 -2.828125,7.109375 -2.828125,2.375 -8.546875,2.375 H 27.984375 V 12.796875 Z M 56.5,39.015625 q 6.046875,-1.765625 9.359375,-6.5 Q 69.1875,27.78125 69.1875,20.90625 69.1875,10.359375 62.0625,5.171875 54.9375,0 40.375,0 H 9.1875 v 72.90625 h 28.21875 q 15.1875,0 22,-4.59375 6.8125,-4.59375 6.8125,-14.703125 0,-5.3125 -2.5,-9.046875 Q 61.234375,40.828125 56.5,39.015625 Z"
               style="stroke-width:0.015625" /></g></g></g><path
         id="rect984"
         style="display:none;fill:#ffffff;stroke-width:0.292425;stroke-linecap:round;stop-color:#000000"
         inkscape:label="V space"
         d="m 460.79999,0 h 14.17323 v 346.60062 h -14.17323 z" /></g></g></svg>
