<?xml version="1.0" encoding="UTF-8" standalone="no"?>
<svg
   class="main-svg"
   width="529.13385"
   height="313.76126"
   viewBox="0 0 529.13385 313.76126"
   version="1.1"
   id="svg108"
   sodipodi:docname="data_split.svg"
   inkscape:version="1.2 (dc2aedaf03, 2022-05-15)"
   xml:space="preserve"
   xmlns:inkscape="http://www.inkscape.org/namespaces/inkscape"
   xmlns:sodipodi="http://sodipodi.sourceforge.net/DTD/sodipodi-0.dtd"
   xmlns="http://www.w3.org/2000/svg"
   xmlns:svg="http://www.w3.org/2000/svg"><sodipodi:namedview
     id="namedview110"
     pagecolor="#505050"
     bordercolor="#eeeeee"
     borderopacity="1"
     inkscape:showpageshadow="0"
     inkscape:pageopacity="0"
     inkscape:pagecheckerboard="0"
     inkscape:deskcolor="#505050"
     showgrid="false"
     inkscape:zoom="1.2091526"
     inkscape:cx="325.84804"
     inkscape:cy="231.56713"
     inkscape:window-width="1920"
     inkscape:window-height="1009"
     inkscape:window-x="1912"
     inkscape:window-y="-8"
     inkscape:window-maximized="1"
     inkscape:current-layer="svg108" /><defs
     id="defs-9a39d7"><g
       class="clips"
       id="g4" /><g
       class="gradients"
       id="g6" /><g
       class="patterns"
       id="g8" /><g
       class="clips"
       id="g397" /><g
       class="gradients"
       id="g399" /><g
       class="patterns"
       id="g401" /><g
       class="clips"
       id="g486" /></defs><defs
     id="topdefs-9a39d7"><g
       class="clips"
       id="g93" /></defs><g
     id="g557"
     inkscape:label="Figure"><path
       id="rect395"
       style="fill:#ffffff;stroke-width:0.68873"
       inkscape:label="Background"
       d="M 0,0 H 529.13385 V 313.76126 H 0 Z" /><g
       class="sankey"
       transform="matrix(0.97897106,0,0,0.97897106,0.24473885,0.24526089)"
       id="g484"
       inkscape:label="Plot"><g
         class="sankey-links"
         style="fill:none"
         id="g444"><path
           class="sankey-link"
           d="m 20,15.30344 c 120,0 120,4.975863 240,4.975863 V 230.2793 c -120,0 -120,-4.97586 -240,-4.97586 z"
           style="opacity:1;fill:#2e8b57;fill-opacity:0.4;stroke:#444444;stroke-width:0;stroke-opacity:1"
           id="path434" /><path
           class="sankey-link"
           d="M 20,225.30344 C 270,225.30344 270,250 520,250 v 23.33333 c -250,0 -250,-24.69656 -500,-24.69656 z"
           style="opacity:1;fill:#4ba3c3;fill-opacity:0.4;stroke:#444444;stroke-width:0;stroke-opacity:1"
           id="path436" /><path
           class="sankey-link"
           d="m 20,268.63677 c 250,0 250,4.69656 500,4.69656 V 320 c -250,0 -250,-4.69656 -500,-4.69656 z"
           style="opacity:1;fill:#4ba3c3;fill-opacity:0.4;stroke:#444444;stroke-width:0;stroke-opacity:1"
           id="path438" /><path
           class="sankey-link"
           d="M 280,20.279303 C 400,20.279303 400,0 520,0 v 175 c -120,0 -120,20.2793 -240,20.2793 z"
           style="opacity:1;fill:#007c91;fill-opacity:0.4;stroke:#444444;stroke-width:0;stroke-opacity:1"
           id="path440" /><path
           class="sankey-link"
           d="M 280,195.2793 C 400,195.2793 400,195 520,195 v 35 c -120,0 -120,0.2793 -240,0.2793 z"
           style="opacity:1;fill:#6dcdb8;fill-opacity:0.4;stroke:#444444;stroke-width:0;stroke-opacity:1"
           id="path442" /></g><g
         class="sankey-node-set"
         id="g482"><g
           class="sankey-node"
           transform="translate(0,15.303)"
           style="opacity:1"
           id="g450"><path
             id="rect446"
             style="fill:#1d2951;stroke:#444444;stroke-width:0.5"
             class="node-rect"
             d="M 0,0 H 20 V 233.33333 H 0 Z" /><g
             aria-label="scRNA-seq"
             transform="translate(23.25,120.86667)"
             id="text448"
             style="font-size:12px;font-family:'Open Sans', verdana, arial, sans-serif;white-space:pre;fill:#2a3f5f"
             class="node-label"><path
               d="m 5.7597656,-1.8867187 q 0,0.89648432 -0.7441406,1.47070307 -0.7382813,0.57421875 -2.0214844,0.57421875 -0.7265625,0 -1.3359375,-0.16992187 Q 1.0546875,-0.1875 0.64453125,-0.39257813 V -1.6289062 H 0.703125 q 0.5214844,0.3925781 1.1601562,0.6269531 0.6386719,0.2285156 1.2246094,0.2285156 0.7265625,0 1.1367188,-0.234375 0.4101562,-0.234375 0.4101562,-0.7382812 0,-0.3867188 -0.2226562,-0.5859376 Q 4.1894531,-2.53125 3.5566406,-2.671875 3.3222656,-2.7246094 2.9414063,-2.7949219 2.5664063,-2.8652344 2.2558594,-2.9472656 1.3945312,-3.1757813 1.03125,-3.6152344 0.67382812,-4.0605469 0.67382812,-4.7050781 q 0,-0.4042969 0.16406251,-0.7617188 0.16992187,-0.3574218 0.50976557,-0.6386718 0.328125,-0.2753907 0.8320313,-0.4335938 0.5097656,-0.1640625 1.1367188,-0.1640625 0.5859375,0 1.1835937,0.1464844 0.6035156,0.140625 1.0019531,0.3457031 v 1.1777344 H 5.4433594 Q 5.0214844,-5.34375 4.4179687,-5.5546875 3.8144531,-5.7714844 3.234375,-5.7714844 q -0.6035156,0 -1.0195312,0.234375 -0.4160157,0.2285157 -0.4160157,0.6855469 0,0.4042969 0.2519532,0.609375 0.2460937,0.2050781 0.796875,0.3339844 0.3046875,0.070312 0.6796875,0.140625 0.3808593,0.070312 0.6328124,0.1289062 0.7675782,0.1757813 1.1835938,0.6035156 0.4160156,0.4335938 0.4160156,1.1484376 z"
               id="path830" /><path
               d="M 12.175781,-0.41015625 Q 11.625,-0.14648437 11.126953,0 q -0.492187,0.14648437 -1.048828,0.14648437 -0.7089844,0 -1.3007812,-0.20507812 -0.5917969,-0.2109375 -1.0136719,-0.6328125 -0.4277344,-0.42187495 -0.6621094,-1.06640625 -0.234375,-0.6445313 -0.234375,-1.5058594 0,-1.6054687 0.8789062,-2.5195312 0.8847657,-0.9140625 2.3320313,-0.9140625 0.5625,0 1.101563,0.1582031 0.544921,0.1582031 0.996093,0.3867188 v 1.2246093 h -0.05859 Q 11.613281,-5.3203125 11.074219,-5.53125 10.541016,-5.7421875 10.03125,-5.7421875 q -0.9375,0 -1.4824219,0.6328125 -0.5390625,0.6269531 -0.5390625,1.8457031 0,1.1835938 0.5273438,1.8222657 0.5332031,0.63281245 1.4941406,0.63281245 0.333984,0 0.679688,-0.0878906 0.345703,-0.0878906 0.621093,-0.22851562 0.240235,-0.1230469 0.451172,-0.2578125 0.210938,-0.140625 0.333985,-0.2402344 h 0.05859 z"
               id="path832" /><path
               d="M 20.894531,0 H 19.388672 L 16.470703,-3.46875 H 14.835938 V 0 h -1.160157 v -8.7246094 h 2.44336 q 0.791015,0 1.318359,0.1054688 0.527344,0.099609 0.949219,0.3632812 Q 18.861328,-7.9570312 19.125,-7.5 q 0.269531,0.4511719 0.269531,1.1484375 0,0.9433594 -0.474609,1.5820313 -0.47461,0.6328125 -1.306641,0.9550781 z m -2.71289,-6.2695312 q 0,-0.375 -0.134766,-0.6621094 -0.128906,-0.2929688 -0.433594,-0.4921875 -0.251953,-0.1699219 -0.597656,-0.234375 -0.345703,-0.070312 -0.814453,-0.070312 h -1.365234 v 3.2929687 h 1.171874 q 0.550782,0 0.960938,-0.09375 0.410156,-0.099609 0.697266,-0.3632812 0.263671,-0.2460938 0.386718,-0.5625 0.128907,-0.3222656 0.128907,-0.8144531 z"
               id="path834" /><path
               d="M 28.675781,0 H 27.240234 L 23.103516,-7.8046875 V 0 h -1.083985 v -8.7246094 h 1.798828 l 3.773438,7.125 v -7.125 h 1.083984 z"
               id="path836" /><path
               d="M 37.875,0 H 36.638672 L 35.783203,-2.4316406 H 32.009766 L 31.154297,0 h -1.177735 l 3.175782,-8.7246094 h 1.546875 z m -2.449219,-3.4277344 -1.529297,-4.2832031 -1.535156,4.2832031 z"
               id="path838" /><path
               d="m 42.287109,-3.2871094 h -3.65625 v -1.0605468 h 3.65625 z"
               id="path840" /><path
               d="m 48.943359,-1.8867187 q 0,0.89648432 -0.74414,1.47070307 -0.738282,0.57421875 -2.021485,0.57421875 -0.726562,0 -1.335937,-0.16992187 Q 44.238281,-0.1875 43.828125,-0.39257813 V -1.6289062 h 0.05859 q 0.521484,0.3925781 1.160156,0.6269531 0.638672,0.2285156 1.224609,0.2285156 0.726563,0 1.136719,-0.234375 0.410156,-0.234375 0.410156,-0.7382812 0,-0.3867188 -0.222656,-0.5859376 Q 47.373047,-2.53125 46.740234,-2.671875 46.505859,-2.7246094 46.125,-2.7949219 q -0.375,-0.070312 -0.685547,-0.1523437 -0.861328,-0.2285157 -1.224609,-0.6679688 -0.357422,-0.4453125 -0.357422,-1.0898437 0,-0.4042969 0.164062,-0.7617188 0.169922,-0.3574218 0.509766,-0.6386718 0.328125,-0.2753907 0.832031,-0.4335938 Q 45.873047,-6.703125 46.5,-6.703125 q 0.585937,0 1.183594,0.1464844 0.603515,0.140625 1.001953,0.3457031 v 1.1777344 h -0.05859 q -0.421875,-0.3105469 -1.025391,-0.5214844 -0.603515,-0.2167969 -1.183593,-0.2167969 -0.603516,0 -1.019532,0.234375 -0.416015,0.2285157 -0.416015,0.6855469 0,0.4042969 0.251953,0.609375 0.246094,0.2050781 0.796875,0.3339844 0.304687,0.070312 0.679687,0.140625 0.38086,0.070312 0.632813,0.1289062 0.767578,0.1757813 1.183594,0.6035156 0.416015,0.4335938 0.416015,1.1484376 z"
               id="path842" /><path
               d="m 55.998047,-3.1582031 h -4.822266 q 0,0.6035156 0.181641,1.0546875 0.18164,0.4453125 0.498047,0.7324219 0.304687,0.28125 0.720703,0.42187495 0.421875,0.140625 0.925781,0.140625 0.667969,0 1.341797,-0.26367185 0.679687,-0.2695313 0.966797,-0.5273438 h 0.05859 v 1.2011719 q -0.556641,0.234375 -1.136719,0.39257812 -0.580078,0.15820313 -1.21875,0.15820313 -1.628906,0 -2.542969,-0.87890625 -0.914062,-0.8847656 -0.914062,-2.5078125 0,-1.6054687 0.873046,-2.5488281 0.878907,-0.9433594 2.308594,-0.9433594 1.324219,0 2.039063,0.7734375 0.720703,0.7734375 0.720703,2.1972656 z m -1.072266,-0.84375 q -0.0059,-0.8671875 -0.439453,-1.3417969 -0.427734,-0.4746094 -1.306641,-0.4746094 -0.884765,0 -1.412109,0.5214844 -0.521484,0.5214844 -0.591797,1.2949219 z"
               id="path844" /><path
               d="M 62.976562,2.4140625 H 61.875 v -3.15234375 q -0.509766,0.43945312 -1.013672,0.65625 -0.503906,0.2109375 -1.089844,0.2109375 -1.166015,0 -1.863281,-0.89648437 -0.691406,-0.90234378 -0.691406,-2.48437498 0,-0.84375 0.240234,-1.4882813 0.246094,-0.6503906 0.644531,-1.0898437 0.386719,-0.4277344 0.908204,-0.6621094 0.521484,-0.234375 1.101562,-0.234375 0.527344,0 0.931641,0.1171875 0.410156,0.1171875 0.832031,0.3457031 l 0.07031,-0.28125 h 1.03125 z M 61.875,-1.6640625 v -3.703125 q -0.457031,-0.2050781 -0.808594,-0.2871094 -0.351562,-0.082031 -0.761719,-0.082031 -0.955078,0 -1.453125,0.6503906 -0.498046,0.6445313 -0.498046,1.78125 0,1.1484375 0.398437,1.7695313 0.404297,0.61523432 1.265625,0.61523432 0.480469,0 0.960938,-0.20507812 0.480468,-0.2109375 0.896484,-0.5390625 z"
               id="path846" /></g></g><g
           class="sankey-node"
           transform="translate(0,268.637)"
           style="opacity:1"
           id="g456"><path
             id="rect452"
             style="fill:#ffd166;stroke:#444444;stroke-width:0.5"
             class="node-rect"
             d="M 0,0 H 20 V 46.666668 H 0 Z" /><g
             aria-label="Spatial Transcriptomics"
             transform="translate(23.25,27.533333)"
             id="text454"
             style="font-size:12px;font-family:'Open Sans', verdana, arial, sans-serif;white-space:pre;fill:#2a3f5f"
             class="node-label"><path
               d="m 7.5117187,-2.4902344 q 0,0.5097657 -0.2402343,1.0078125 -0.234375,0.4980469 -0.6621094,0.84375003 -0.46875,0.37499999 -1.0957031,0.5859375 -0.6210938,0.21093749 -1.5,0.21093749 -0.9433594,0 -1.6992188,-0.17578125 -0.75,-0.17578124 -1.52929685,-0.52148437 v -1.453125 h 0.0820313 q 0.6621094,0.5507813 1.5292969,0.8496094 0.8671875,0.2988281 1.6289062,0.2988281 1.078125,0 1.6757813,-0.4042969 0.6035156,-0.4042968 0.6035156,-1.078125 0,-0.5800781 -0.2871094,-0.8554687 Q 5.7363281,-3.4570313 5.15625,-3.609375 4.7167969,-3.7265625 4.2011719,-3.8027344 3.6914063,-3.8789063 3.1171875,-3.9960938 1.9570312,-4.2421875 1.3945312,-4.8339844 0.83789063,-5.4316406 0.83789063,-6.3867187 q 0,-1.0957032 0.92578127,-1.7929688 0.9257812,-0.703125 2.3496093,-0.703125 0.9199219,0 1.6875,0.1757812 0.7675782,0.1757813 1.359375,0.4335938 v 1.3710938 H 7.078125 q -0.4980469,-0.421875 -1.3125,-0.6972657 -0.8085938,-0.28125 -1.6582031,-0.28125 -0.9316406,0 -1.5,0.3867188 -0.5625,0.3867187 -0.5625,0.9960937 0,0.5449219 0.28125,0.8554688 0.28125,0.3105469 0.9902344,0.4746094 0.375,0.082031 1.0664062,0.1992187 0.6914062,0.1171875 1.171875,0.2402344 0.9726562,0.2578125 1.4648437,0.7792968 0.4921875,0.5214844 0.4921875,1.4589844 z"
               id="path850" /><path
               d="m 15.046875,-3.3515625 q 0,0.796875 -0.228516,1.4589844 -0.228515,0.65625 -0.644531,1.11328123 -0.386719,0.43359374 -0.914062,0.67382812 -0.521485,0.234375 -1.107422,0.234375 -0.509766,0 -0.925781,-0.11132812 Q 10.816406,-0.09375 10.388672,-0.328125 V 2.4140625 H 9.2871094 v -8.9589844 h 1.1015626 v 0.6855469 q 0.439453,-0.3691406 0.984375,-0.6152344 0.550781,-0.2519531 1.171875,-0.2519531 1.183594,0 1.839844,0.8964844 0.662109,0.890625 0.662109,2.4785156 z m -1.136719,0.029297 q 0,-1.1835938 -0.404297,-1.7695313 -0.404296,-0.5859375 -1.242187,-0.5859375 -0.474609,0 -0.955078,0.2050782 -0.480469,0.2050781 -0.919922,0.5390625 v 3.7089843 q 0.46875,0.2109375 0.802734,0.2871094 0.339844,0.0761719 0.767578,0.0761719 0.919922,0 1.435547,-0.62109377 0.515625,-0.6210937 0.515625,-1.8398437 z"
               id="path852" /><path
               d="m 21.849609,0 h -1.095703 v -0.69726562 q -0.146484,0.0996094 -0.398437,0.28124999 Q 20.109375,-0.24023438 19.875,-0.13476562 19.599609,0 19.242187,0.08789062 q -0.357421,0.09375 -0.83789,0.09375 -0.884766,0 -1.5,-0.5859375 -0.615235,-0.5859375 -0.615235,-1.49414062 0,-0.7441406 0.316407,-1.2011719 0.322265,-0.4628906 0.914062,-0.7265625 0.597656,-0.2636718 1.435547,-0.3574218 0.837891,-0.09375 1.798828,-0.140625 v -0.1699219 q 0,-0.375 -0.134765,-0.6210938 -0.128907,-0.2460937 -0.375,-0.3867187 -0.234375,-0.1347656 -0.5625,-0.1816406 -0.328125,-0.046875 -0.685547,-0.046875 -0.433594,0 -0.966797,0.1171875 -0.533203,0.1113281 -1.101563,0.328125 h -0.05859 v -1.1191407 q 0.322265,-0.087891 0.93164,-0.1933593 0.609375,-0.1054688 1.201172,-0.1054688 0.691406,0 1.201172,0.1171875 0.515625,0.1113281 0.890625,0.3867188 0.369141,0.2695312 0.5625,0.6972656 0.193359,0.4277344 0.193359,1.0605469 z m -1.095703,-1.6113281 v -1.8222657 q -0.503906,0.029297 -1.189453,0.087891 -0.679687,0.058594 -1.078125,0.1699218 -0.474609,0.1347657 -0.767578,0.421875 -0.292969,0.28125 -0.292969,0.7792969 0,0.5625 0.339844,0.8496094 0.339844,0.28125 1.037109,0.28125 0.580078,0 1.060547,-0.2226562 0.480469,-0.2285157 0.890625,-0.5449219 z"
               id="path854" /><path
               d="m 27.369141,-0.05859375 q -0.310547,0.08203125 -0.679688,0.13476562 -0.363281,0.05273438 -0.650391,0.05273438 -1.001953,0 -1.523437,-0.5390625 -0.521484,-0.5390625 -0.521484,-1.72851565 V -5.6191406 H 23.25 v -0.9257813 h 0.744141 v -1.8808594 h 1.101562 v 1.8808594 h 2.273438 v 0.9257813 h -2.273438 v 2.9824218 q 0,0.515625 0.02344,0.8085938 0.02344,0.2871094 0.164062,0.5390625 0.128906,0.234375 0.351563,0.34570312 0.228515,0.10546875 0.691406,0.10546875 0.269531,0 0.5625,-0.0761719 0.292969,-0.0820313 0.421875,-0.1347656 h 0.05859 z"
               id="path856" /><path
               d="m 29.882812,-7.640625 h -1.242187 v -1.1425781 h 1.242187 z M 29.8125,0 H 28.710937 V -6.5449219 H 29.8125 Z"
               id="path858" /><path
               d="m 37.078125,0 h -1.095703 v -0.69726562 q -0.146485,0.0996094 -0.398438,0.28124999 -0.246093,0.17578125 -0.480468,0.28125001 Q 34.828125,0 34.470703,0.08789062 q -0.357422,0.09375 -0.837891,0.09375 -0.884765,0 -1.5,-0.5859375 -0.615234,-0.5859375 -0.615234,-1.49414062 0,-0.7441406 0.316406,-1.2011719 0.322266,-0.4628906 0.914063,-0.7265625 0.597656,-0.2636718 1.435547,-0.3574218 0.83789,-0.09375 1.798828,-0.140625 v -0.1699219 q 0,-0.375 -0.134766,-0.6210938 -0.128906,-0.2460937 -0.375,-0.3867187 -0.234375,-0.1347656 -0.5625,-0.1816406 -0.328125,-0.046875 -0.685547,-0.046875 -0.433593,0 -0.966797,0.1171875 -0.533203,0.1113281 -1.101562,0.328125 h -0.05859 v -1.1191407 q 0.322266,-0.087891 0.931641,-0.1933593 0.609375,-0.1054688 1.201172,-0.1054688 0.691406,0 1.201172,0.1171875 0.515625,0.1113281 0.890625,0.3867188 0.36914,0.2695312 0.5625,0.6972656 0.193359,0.4277344 0.193359,1.0605469 z m -1.095703,-1.6113281 v -1.8222657 q -0.503906,0.029297 -1.189453,0.087891 -0.679688,0.058594 -1.078125,0.1699218 -0.47461,0.1347657 -0.767578,0.421875 -0.292969,0.28125 -0.292969,0.7792969 0,0.5625 0.339844,0.8496094 0.339843,0.28125 1.037109,0.28125 0.580078,0 1.060547,-0.2226562 0.480469,-0.2285157 0.890625,-0.5449219 z"
               id="path860" /><path
               d="M 40.3125,0 H 39.210937 V -9.1171875 H 40.3125 Z"
               id="path862" /><path
               d="M 53.021484,-7.6933594 H 49.904297 V 0 h -1.160156 v -7.6933594 h -3.117188 v -1.03125 h 7.394531 z"
               id="path864" /><path
               d="m 57.017578,-5.34375 h -0.05859 q -0.246093,-0.058594 -0.480468,-0.082031 -0.228516,-0.029297 -0.544922,-0.029297 -0.509766,0 -0.984375,0.2285156 -0.47461,0.2226563 -0.914063,0.5800781 V 0 h -1.101562 v -6.5449219 h 1.101562 v 0.9667969 q 0.65625,-0.5273437 1.154297,-0.7441406 0.503906,-0.2226563 1.025391,-0.2226563 0.287109,0 0.416015,0.017578 0.128907,0.011719 0.386719,0.052734 z"
               id="path866" /><path
               d="m 62.929687,0 h -1.095703 v -0.69726562 q -0.146484,0.0996094 -0.398437,0.28124999 -0.246094,0.17578125 -0.480469,0.28125001 Q 60.679687,0 60.322266,0.08789062 q -0.357422,0.09375 -0.837891,0.09375 -0.884766,0 -1.5,-0.5859375 -0.615234,-0.5859375 -0.615234,-1.49414062 0,-0.7441406 0.316406,-1.2011719 0.322265,-0.4628906 0.914062,-0.7265625 0.597657,-0.2636718 1.435547,-0.3574218 0.837891,-0.09375 1.798828,-0.140625 v -0.1699219 q 0,-0.375 -0.134765,-0.6210938 -0.128907,-0.2460937 -0.375,-0.3867187 -0.234375,-0.1347656 -0.5625,-0.1816406 -0.328125,-0.046875 -0.685547,-0.046875 -0.433594,0 -0.966797,0.1171875 -0.533203,0.1113281 -1.101563,0.328125 h -0.05859 v -1.1191407 q 0.322265,-0.087891 0.93164,-0.1933593 0.609375,-0.1054688 1.201172,-0.1054688 0.691406,0 1.201172,0.1171875 0.515625,0.1113281 0.890625,0.3867188 0.369141,0.2695312 0.5625,0.6972656 0.193359,0.4277344 0.193359,1.0605469 z m -1.095703,-1.6113281 v -1.8222657 q -0.503906,0.029297 -1.189453,0.087891 -0.679687,0.058594 -1.078125,0.1699218 -0.474609,0.1347657 -0.767578,0.421875 -0.292969,0.28125 -0.292969,0.7792969 0,0.5625 0.339844,0.8496094 0.339844,0.28125 1.037109,0.28125 0.580079,0 1.060547,-0.2226562 0.480469,-0.2285157 0.890625,-0.5449219 z"
               id="path868" /><path
               d="m 70.523437,0 h -1.101562 v -3.7265625 q 0,-0.4511719 -0.05273,-0.84375 -0.05273,-0.3984375 -0.19336,-0.6210937 -0.146484,-0.2460938 -0.421875,-0.3632813 -0.27539,-0.1230469 -0.714844,-0.1230469 -0.451171,0 -0.943359,0.2226563 -0.492187,0.2226562 -0.943359,0.5683594 V 0 h -1.101563 v -6.5449219 h 1.101563 v 0.7265625 q 0.515625,-0.4277343 1.066406,-0.6679687 0.550781,-0.2402344 1.130859,-0.2402344 1.060547,0 1.617188,0.6386719 0.55664,0.6386719 0.55664,1.8398437 z"
               id="path870" /><path
               d="m 77.320312,-1.8867187 q 0,0.89648432 -0.74414,1.47070307 -0.738281,0.57421875 -2.021485,0.57421875 -0.726562,0 -1.335937,-0.16992187 Q 72.615234,-0.1875 72.205078,-0.39257813 V -1.6289062 h 0.05859 q 0.521484,0.3925781 1.160156,0.6269531 0.638672,0.2285156 1.224609,0.2285156 0.726563,0 1.136719,-0.234375 0.410156,-0.234375 0.410156,-0.7382812 0,-0.3867188 -0.222656,-0.5859376 Q 75.75,-2.53125 75.117187,-2.671875 q -0.234375,-0.052734 -0.615234,-0.1230469 -0.375,-0.070312 -0.685547,-0.1523437 -0.861328,-0.2285157 -1.224609,-0.6679688 -0.357422,-0.4453125 -0.357422,-1.0898437 0,-0.4042969 0.164062,-0.7617188 0.169922,-0.3574218 0.509766,-0.6386718 0.328125,-0.2753907 0.832031,-0.4335938 0.509766,-0.1640625 1.136719,-0.1640625 0.585938,0 1.183594,0.1464844 0.603515,0.140625 1.001953,0.3457031 v 1.1777344 h -0.05859 Q 76.582031,-5.34375 75.978516,-5.5546875 75.375,-5.7714844 74.794922,-5.7714844 q -0.603516,0 -1.019531,0.234375 -0.416016,0.2285157 -0.416016,0.6855469 0,0.4042969 0.251953,0.609375 0.246094,0.2050781 0.796875,0.3339844 0.304688,0.070312 0.679688,0.140625 0.380859,0.070312 0.632812,0.1289062 0.767578,0.1757813 1.183594,0.6035156 0.416015,0.4335938 0.416015,1.1484376 z"
               id="path872" /><path
               d="M 83.736328,-0.41015625 Q 83.185547,-0.14648437 82.6875,0 q -0.492188,0.14648437 -1.048828,0.14648437 -0.708985,0 -1.300781,-0.20507812 -0.591797,-0.2109375 -1.013672,-0.6328125 -0.427735,-0.42187495 -0.66211,-1.06640625 -0.234375,-0.6445313 -0.234375,-1.5058594 0,-1.6054687 0.878907,-2.5195312 0.884765,-0.9140625 2.332031,-0.9140625 0.5625,0 1.101562,0.1582031 0.544922,0.1582031 0.996094,0.3867188 v 1.2246093 h -0.05859 q -0.503906,-0.3925781 -1.042968,-0.6035156 -0.533204,-0.2109375 -1.042969,-0.2109375 -0.9375,0 -1.482422,0.6328125 -0.539063,0.6269531 -0.539063,1.8457031 0,1.1835938 0.527344,1.8222657 0.533203,0.63281245 1.494141,0.63281245 0.333984,0 0.679687,-0.0878906 0.345703,-0.0878906 0.621094,-0.22851562 0.240234,-0.1230469 0.451172,-0.2578125 0.210937,-0.140625 0.333984,-0.2402344 h 0.05859 z"
               id="path874" /><path
               d="m 89.232422,-5.34375 h -0.05859 q -0.246094,-0.058594 -0.480469,-0.082031 -0.228515,-0.029297 -0.544922,-0.029297 -0.509765,0 -0.984375,0.2285156 Q 86.689453,-5.0039062 86.25,-4.6464844 V 0 H 85.148437 V -6.5449219 H 86.25 v 0.9667969 q 0.65625,-0.5273437 1.154297,-0.7441406 0.503906,-0.2226563 1.02539,-0.2226563 0.28711,0 0.416016,0.017578 0.128906,0.011719 0.386719,0.052734 z"
               id="path876" /><path
               d="m 91.453125,-7.640625 h -1.242188 v -1.1425781 h 1.242188 z M 91.382812,0 H 90.28125 v -6.5449219 h 1.101562 z"
               id="path878" /><path
               d="m 99.322266,-3.3515625 q 0,0.796875 -0.228516,1.4589844 -0.228516,0.65625 -0.644531,1.11328123 -0.386719,0.43359374 -0.914063,0.67382812 -0.521484,0.234375 -1.107422,0.234375 -0.509765,0 -0.925781,-0.11132812 Q 95.091797,-0.09375 94.664062,-0.328125 V 2.4140625 H 93.5625 v -8.9589844 h 1.101562 v 0.6855469 q 0.439454,-0.3691406 0.984375,-0.6152344 0.550782,-0.2519531 1.171875,-0.2519531 1.183594,0 1.839844,0.8964844 0.66211,0.890625 0.66211,2.4785156 z m -1.136719,0.029297 q 0,-1.1835938 -0.404297,-1.7695313 -0.404297,-0.5859375 -1.242188,-0.5859375 -0.474609,0 -0.955078,0.2050782 -0.480468,0.2050781 -0.919922,0.5390625 v 3.7089843 q 0.46875,0.2109375 0.802735,0.2871094 0.339844,0.0761719 0.767578,0.0761719 0.919922,0 1.435547,-0.62109377 0.515625,-0.6210937 0.515625,-1.8398437 z"
               id="path880" /><path
               d="m 104.4375,-0.05859375 q -0.31055,0.08203125 -0.67969,0.13476562 -0.36328,0.05273438 -0.65039,0.05273438 -1.00195,0 -1.52344,-0.5390625 -0.52148,-0.5390625 -0.52148,-1.72851565 v -3.4804687 h -0.74414 v -0.9257813 h 0.74414 v -1.8808594 h 1.10156 v 1.8808594 h 2.27344 v 0.9257813 h -2.27344 v 2.9824218 q 0,0.515625 0.0234,0.8085938 0.0234,0.2871094 0.16406,0.5390625 0.12891,0.234375 0.35157,0.34570312 0.22851,0.10546875 0.6914,0.10546875 0.26953,0 0.5625,-0.0761719 0.29297,-0.0820313 0.42188,-0.1347656 h 0.0586 z"
               id="path882" /><path
               d="m 111.3457,-3.2695313 q 0,1.5996094 -0.82031,2.52539068 -0.82031,0.92578124 -2.19726,0.92578124 -1.38868,0 -2.20899,-0.92578124 -0.81445,-0.92578128 -0.81445,-2.52539068 0,-1.5996093 0.81445,-2.5253906 0.82031,-0.9316406 2.20899,-0.9316406 1.37695,0 2.19726,0.9316406 0.82031,0.9257813 0.82031,2.5253906 z m -1.13672,0 q 0,-1.2714843 -0.49804,-1.8867187 -0.49805,-0.6210937 -1.38281,-0.6210937 -0.89649,0 -1.39454,0.6210937 -0.49218,0.6152344 -0.49218,1.8867187 0,1.2304688 0.49804,1.8691407 0.49805,0.63281248 1.38868,0.63281248 0.8789,0 1.37695,-0.62695308 0.5039,-0.6328126 0.5039,-1.8750001 z"
               id="path884" /><path
               d="M 122.60156,0 H 121.5 v -3.7265625 q 0,-0.421875 -0.041,-0.8144531 -0.0352,-0.3925781 -0.1582,-0.6269531 -0.13476,-0.2519532 -0.38672,-0.3808594 -0.25195,-0.1289063 -0.72656,-0.1289063 -0.46289,0 -0.92578,0.234375 -0.46289,0.2285157 -0.92578,0.5859375 0.0176,0.1347657 0.0293,0.3164063 0.0117,0.1757812 0.0117,0.3515625 V 0 h -1.10156 v -3.7265625 q 0,-0.4335937 -0.041,-0.8203125 -0.0352,-0.3925781 -0.15821,-0.6269531 -0.13476,-0.2519531 -0.38672,-0.375 -0.25195,-0.1289063 -0.72656,-0.1289063 -0.45117,0 -0.9082,0.2226563 -0.45117,0.2226562 -0.90235,0.5683594 V 0 h -1.10156 v -6.5449219 h 1.10156 v 0.7265625 q 0.51563,-0.4277343 1.02539,-0.6679687 0.51563,-0.2402344 1.09571,-0.2402344 0.66797,0 1.13086,0.28125 0.46875,0.28125 0.69726,0.7792969 0.66797,-0.5625 1.21875,-0.8085938 0.55078,-0.2519531 1.17774,-0.2519531 1.07812,0 1.58789,0.65625 0.51562,0.6503906 0.51562,1.8222656 z"
               id="path886" /><path
               d="m 125.90625,-7.640625 h -1.24219 v -1.1425781 h 1.24219 z M 125.83594,0 h -1.10156 v -6.5449219 h 1.10156 z"
               id="path888" /><path
               d="M 132.85547,-0.41015625 Q 132.30469,-0.14648437 131.80664,0 q -0.49219,0.14648437 -1.04883,0.14648437 -0.70898,0 -1.30078,-0.20507812 -0.5918,-0.2109375 -1.01367,-0.6328125 -0.42774,-0.42187495 -0.66211,-1.06640625 -0.23437,-0.6445313 -0.23437,-1.5058594 0,-1.6054687 0.8789,-2.5195312 0.88477,-0.9140625 2.33203,-0.9140625 0.5625,0 1.10156,0.1582031 0.54493,0.1582031 0.9961,0.3867188 v 1.2246093 h -0.0586 q -0.5039,-0.3925781 -1.04296,-0.6035156 -0.53321,-0.2109375 -1.04297,-0.2109375 -0.9375,0 -1.48242,0.6328125 -0.53907,0.6269531 -0.53907,1.8457031 0,1.1835938 0.52735,1.8222657 0.5332,0.63281245 1.49414,0.63281245 0.33398,0 0.67968,-0.0878906 0.34571,-0.0878906 0.6211,-0.22851562 0.24023,-0.1230469 0.45117,-0.2578125 0.21094,-0.140625 0.33398,-0.2402344 h 0.0586 z"
               id="path890" /><path
               d="m 138.94336,-1.8867187 q 0,0.89648432 -0.74414,1.47070307 -0.73828,0.57421875 -2.02149,0.57421875 -0.72656,0 -1.33593,-0.16992187 Q 134.23828,-0.1875 133.82812,-0.39257813 V -1.6289062 h 0.0586 q 0.52148,0.3925781 1.16015,0.6269531 0.63868,0.2285156 1.22461,0.2285156 0.72657,0 1.13672,-0.234375 0.41016,-0.234375 0.41016,-0.7382812 0,-0.3867188 -0.22266,-0.5859376 -0.22265,-0.1992187 -0.85547,-0.3398437 -0.23437,-0.052734 -0.61523,-0.1230469 -0.375,-0.070312 -0.68555,-0.1523437 -0.86133,-0.2285157 -1.22461,-0.6679688 -0.35742,-0.4453125 -0.35742,-1.0898437 0,-0.4042969 0.16406,-0.7617188 0.16993,-0.3574218 0.50977,-0.6386718 0.32812,-0.2753907 0.83203,-0.4335938 0.50977,-0.1640625 1.13672,-0.1640625 0.58594,0 1.18359,0.1464844 0.60352,0.140625 1.00196,0.3457031 v 1.1777344 h -0.0586 q -0.42187,-0.3105469 -1.02539,-0.5214844 -0.60351,-0.2167969 -1.18359,-0.2167969 -0.60352,0 -1.01953,0.234375 -0.41602,0.2285157 -0.41602,0.6855469 0,0.4042969 0.25195,0.609375 0.2461,0.2050781 0.79688,0.3339844 0.30469,0.070312 0.67969,0.140625 0.38086,0.070312 0.63281,0.1289062 0.76758,0.1757813 1.18359,0.6035156 0.41602,0.4335938 0.41602,1.1484376 z"
               id="path892" /></g></g><g
           class="sankey-node"
           transform="translate(260,20.279)"
           style="opacity:1"
           id="g462"><path
             id="rect458"
             style="fill:#2e8b57;stroke:#444444;stroke-width:0.5"
             class="node-rect"
             d="M 0,0 H 20 V 210 H 0 Z" /><g
             aria-label="Training"
             transform="translate(23.25,109.2)"
             id="text460"
             style="font-size:12px;font-family:'Open Sans', verdana, arial, sans-serif;white-space:pre;fill:#2a3f5f"
             class="node-label"><path
               d="M 7.3945312,-7.6933594 H 4.2773437 V 0 H 3.1171875 V -7.6933594 H 0 v -1.03125 h 7.3945312 z"
               id="path896" /><path
               d="m 11.390625,-5.34375 h -0.05859 q -0.246093,-0.058594 -0.480468,-0.082031 -0.228516,-0.029297 -0.544922,-0.029297 -0.509766,0 -0.9843754,0.2285156 -0.4746093,0.2226563 -0.9140625,0.5800781 V 0 H 7.3066406 v -6.5449219 h 1.1015625 v 0.9667969 q 0.65625,-0.5273437 1.1542969,-0.7441406 0.503906,-0.2226563 1.025391,-0.2226563 0.287109,0 0.416015,0.017578 0.128907,0.011719 0.386719,0.052734 z"
               id="path898" /><path
               d="m 17.302734,0 h -1.095703 v -0.69726562 q -0.146484,0.0996094 -0.398437,0.28124999 Q 15.5625,-0.24023438 15.328125,-0.13476562 15.052734,0 14.695313,0.08789062 q -0.357422,0.09375 -0.837891,0.09375 -0.884766,0 -1.5,-0.5859375 -0.615234,-0.5859375 -0.615234,-1.49414062 0,-0.7441406 0.316406,-1.2011719 0.322265,-0.4628906 0.914062,-0.7265625 0.597657,-0.2636718 1.435547,-0.3574218 0.837891,-0.09375 1.798828,-0.140625 v -0.1699219 q 0,-0.375 -0.134765,-0.6210938 -0.128907,-0.2460937 -0.375,-0.3867187 -0.234375,-0.1347656 -0.5625,-0.1816406 -0.328125,-0.046875 -0.685547,-0.046875 -0.433594,0 -0.966797,0.1171875 -0.533203,0.1113281 -1.101563,0.328125 h -0.05859 v -1.1191407 q 0.322265,-0.087891 0.93164,-0.1933593 0.609375,-0.1054688 1.201172,-0.1054688 0.691406,0 1.201172,0.1171875 0.515625,0.1113281 0.890625,0.3867188 0.369141,0.2695312 0.5625,0.6972656 0.193359,0.4277344 0.193359,1.0605469 z m -1.095703,-1.6113281 v -1.8222657 q -0.503906,0.029297 -1.189453,0.087891 -0.679687,0.058594 -1.078125,0.1699218 -0.474609,0.1347657 -0.767578,0.421875 -0.292969,0.28125 -0.292969,0.7792969 0,0.5625 0.339844,0.8496094 0.339844,0.28125 1.037109,0.28125 0.580079,0 1.060547,-0.2226562 0.480469,-0.2285157 0.890625,-0.5449219 z"
               id="path900" /><path
               d="m 20.607422,-7.640625 h -1.242188 v -1.1425781 h 1.242188 z M 20.537109,0 h -1.101562 v -6.5449219 h 1.101562 z"
               id="path902" /><path
               d="m 28.189453,0 h -1.101562 v -3.7265625 q 0,-0.4511719 -0.05273,-0.84375 -0.05273,-0.3984375 -0.193359,-0.6210937 -0.146485,-0.2460938 -0.421875,-0.3632813 -0.275391,-0.1230469 -0.714844,-0.1230469 -0.451172,0 -0.943359,0.2226563 -0.492188,0.2226562 -0.94336,0.5683594 V 0 h -1.101562 v -6.5449219 h 1.101562 v 0.7265625 q 0.515625,-0.4277343 1.066407,-0.6679687 0.550781,-0.2402344 1.130859,-0.2402344 1.060547,0 1.617187,0.6386719 0.556641,0.6386719 0.556641,1.8398437 z"
               id="path904" /><path
               d="m 31.494141,-7.640625 h -1.242188 v -1.1425781 h 1.242188 z M 31.423828,0 h -1.101562 v -6.5449219 h 1.101562 z"
               id="path906" /><path
               d="m 39.076172,0 h -1.101563 v -3.7265625 q 0,-0.4511719 -0.05273,-0.84375 Q 37.869141,-4.96875 37.728516,-5.1914062 37.582031,-5.4375 37.306641,-5.5546875 37.03125,-5.6777344 36.591797,-5.6777344 q -0.451172,0 -0.94336,0.2226563 -0.492187,0.2226562 -0.943359,0.5683594 V 0 h -1.101562 v -6.5449219 h 1.101562 v 0.7265625 q 0.515625,-0.4277343 1.066406,-0.6679687 0.550782,-0.2402344 1.13086,-0.2402344 1.060547,0 1.617187,0.6386719 0.556641,0.6386719 0.556641,1.8398437 z"
               id="path908" /><path
               d="m 46.505859,-0.74414062 q 0,1.6640625 -0.755859,2.44335932 -0.755859,0.7792969 -2.326172,0.7792969 -0.521484,0 -1.019531,-0.076172 -0.492188,-0.070312 -0.972656,-0.2050782 v -1.125 h 0.05859 q 0.269532,0.1054688 0.855469,0.2578125 0.585938,0.1582031 1.171875,0.1582031 0.5625,0 0.931641,-0.1347656 Q 44.818359,1.21875 45.023437,0.97851563 45.228516,0.75 45.316406,0.42773438 q 0.08789,-0.32226563 0.08789,-0.72070313 V -0.890625 q -0.498047,0.3984375 -0.955078,0.59765625 -0.451172,0.19335938 -1.154297,0.19335938 -1.171875,0 -1.863281,-0.84375001 -0.685547,-0.84960932 -0.685547,-2.39062502 0,-0.84375 0.234375,-1.453125 0.240234,-0.6152343 0.65039,-1.0605468 0.38086,-0.4160157 0.925782,-0.6445313 0.544921,-0.234375 1.083984,-0.234375 0.568359,0 0.949219,0.1171875 0.386718,0.1113281 0.814453,0.3457031 l 0.07031,-0.28125 h 1.03125 z M 45.404297,-1.7988281 v -3.5683594 q -0.439453,-0.1992187 -0.820313,-0.28125 -0.375,-0.087891 -0.75,-0.087891 -0.908203,0 -1.429687,0.609375 -0.521485,0.609375 -0.521485,1.7695312 0,1.1015625 0.386719,1.6699219 0.386719,0.5683594 1.283203,0.5683594 0.480469,0 0.960938,-0.1816406 0.486328,-0.1875 0.890625,-0.4980469 z"
               id="path910" /></g></g><g
           class="sankey-node"
           transform="translate(520)"
           style="opacity:1"
           id="g468"><path
             id="rect464"
             style="fill:#007c91;stroke:#444444;stroke-width:0.5"
             class="node-rect"
             d="M 0,0 H 20 V 175 H 0 Z" /><g
             aria-label="Training"
             transform="translate(-3.25,91.7)"
             id="text466"
             style="font-size:12px;font-family:'Open Sans', verdana, arial, sans-serif;text-anchor:end;white-space:pre;fill:#2a3f5f"
             class="node-label"><path
               d="M -40.195312,-7.6933594 H -43.3125 V 0 h -1.160156 v -7.6933594 h -3.117188 v -1.03125 h 7.394532 z"
               id="path914" /><path
               d="m -36.199219,-5.34375 h -0.05859 q -0.246094,-0.058594 -0.480469,-0.082031 -0.228516,-0.029297 -0.544922,-0.029297 -0.509766,0 -0.984375,0.2285156 -0.474609,0.2226563 -0.914063,0.5800781 V 0 h -1.101562 v -6.5449219 h 1.101562 v 0.9667969 q 0.65625,-0.5273437 1.154297,-0.7441406 0.503907,-0.2226563 1.025391,-0.2226563 0.287109,0 0.416016,0.017578 0.128906,0.011719 0.386718,0.052734 z"
               id="path916" /><path
               d="m -30.287109,0 h -1.095703 v -0.69726562 q -0.146485,0.0996094 -0.398438,0.28124999 -0.246094,0.17578125 -0.480469,0.28125001 Q -32.537109,0 -32.894531,0.08789062 q -0.357422,0.09375 -0.837891,0.09375 -0.884765,0 -1.5,-0.5859375 -0.615234,-0.5859375 -0.615234,-1.49414062 0,-0.7441406 0.316406,-1.2011719 0.322266,-0.4628906 0.914063,-0.7265625 0.597656,-0.2636718 1.435546,-0.3574218 0.837891,-0.09375 1.798829,-0.140625 v -0.1699219 q 0,-0.375 -0.134766,-0.6210938 -0.128906,-0.2460937 -0.375,-0.3867187 -0.234375,-0.1347656 -0.5625,-0.1816406 -0.328125,-0.046875 -0.685547,-0.046875 -0.433594,0 -0.966797,0.1171875 -0.533203,0.1113281 -1.101562,0.328125 h -0.05859 v -1.1191407 q 0.322266,-0.087891 0.931641,-0.1933593 0.609375,-0.1054688 1.201171,-0.1054688 0.691407,0 1.201172,0.1171875 0.515625,0.1113281 0.890625,0.3867188 0.369141,0.2695312 0.5625,0.6972656 0.19336,0.4277344 0.19336,1.0605469 z m -1.095703,-1.6113281 v -1.8222657 q -0.503907,0.029297 -1.189454,0.087891 -0.679687,0.058594 -1.078125,0.1699218 -0.474609,0.1347657 -0.767578,0.421875 -0.292968,0.28125 -0.292968,0.7792969 0,0.5625 0.339843,0.8496094 0.339844,0.28125 1.03711,0.28125 0.580078,0 1.060547,-0.2226562 0.480468,-0.2285157 0.890625,-0.5449219 z"
               id="path918" /><path
               d="m -26.982422,-7.640625 h -1.242187 v -1.1425781 h 1.242187 z M -27.052734,0 h -1.101563 v -6.5449219 h 1.101563 z"
               id="path920" /><path
               d="m -19.400391,0 h -1.101562 v -3.7265625 q 0,-0.4511719 -0.05273,-0.84375 -0.05273,-0.3984375 -0.19336,-0.6210937 -0.146484,-0.2460938 -0.421875,-0.3632813 -0.27539,-0.1230469 -0.714844,-0.1230469 -0.451171,0 -0.943359,0.2226563 -0.492187,0.2226562 -0.943359,0.5683594 V 0 h -1.101563 v -6.5449219 h 1.101563 v 0.7265625 q 0.515625,-0.4277343 1.066406,-0.6679687 0.550781,-0.2402344 1.130859,-0.2402344 1.060547,0 1.617188,0.6386719 0.55664,0.6386719 0.55664,1.8398437 z"
               id="path922" /><path
               d="m -16.095703,-7.640625 h -1.242188 v -1.1425781 h 1.242188 z M -16.166016,0 h -1.101562 v -6.5449219 h 1.101562 z"
               id="path924" /><path
               d="m -8.5136719,0 h -1.1015625 v -3.7265625 q 0,-0.4511719 -0.052734,-0.84375 -0.052734,-0.3984375 -0.1933593,-0.6210937 -0.1464849,-0.2460938 -0.4218749,-0.3632813 -0.275391,-0.1230469 -0.714844,-0.1230469 -0.451172,0 -0.943359,0.2226563 -0.492188,0.2226562 -0.94336,0.5683594 V 0 h -1.101562 v -6.5449219 h 1.101562 v 0.7265625 q 0.515625,-0.4277343 1.066407,-0.6679687 0.550781,-0.2402344 1.130859,-0.2402344 1.0605469,0 1.6171875,0.6386719 0.5566406,0.6386719 0.5566406,1.8398437 z"
               id="path926" /><path
               d="m -1.0839844,-0.74414062 q 0,1.6640625 -0.7558593,2.44335932 -0.7558594,0.7792969 -2.3261719,0.7792969 -0.5214844,0 -1.0195313,-0.076172 -0.4921875,-0.070312 -0.9726562,-0.2050782 v -1.125 h 0.058594 q 0.2695313,0.1054688 0.8554688,0.2578125 0.5859375,0.1582031 1.171875,0.1582031 0.5625,0 0.9316406,-0.1347656 Q -2.7714844,1.21875 -2.5664063,0.97851563 -2.3613281,0.75 -2.2734375,0.42773438 q 0.087891,-0.32226563 0.087891,-0.72070313 V -0.890625 q -0.4980469,0.3984375 -0.9550781,0.59765625 -0.4511719,0.19335938 -1.1542969,0.19335938 -1.171875,0 -1.8632812,-0.84375001 Q -6.84375,-1.7929687 -6.84375,-3.3339844 q 0,-0.84375 0.234375,-1.453125 0.2402344,-0.6152343 0.6503906,-1.0605468 0.3808594,-0.4160157 0.9257813,-0.6445313 0.5449219,-0.234375 1.0839843,-0.234375 0.5683594,0 0.9492188,0.1171875 0.3867187,0.1113281 0.8144531,0.3457031 l 0.070312,-0.28125 h 1.03125 z M -2.1855469,-1.7988281 v -3.5683594 q -0.4394531,-0.1992187 -0.8203125,-0.28125 -0.375,-0.087891 -0.75,-0.087891 -0.9082031,0 -1.4296875,0.609375 -0.5214843,0.609375 -0.5214843,1.7695312 0,1.1015625 0.3867187,1.6699219 0.3867188,0.5683594 1.2832031,0.5683594 0.4804688,0 0.9609375,-0.1816406 0.4863281,-0.1875 0.890625,-0.4980469 z"
               id="path928" /></g></g><g
           class="sankey-node"
           transform="translate(520,195)"
           style="opacity:1"
           id="g474"><path
             id="rect470"
             style="fill:#6dcdb8;stroke:#444444;stroke-width:0.5"
             class="node-rect"
             d="M 0,0 H 20 V 35 H 0 Z" /><g
             aria-label="Validation"
             transform="translate(-3.25,21.7)"
             id="text472"
             style="font-size:12px;font-family:'Open Sans', verdana, arial, sans-serif;text-anchor:end;white-space:pre;fill:#2a3f5f"
             class="node-label"><path
               d="M -50.941406,-8.7246094 -54.117187,0 h -1.546875 l -3.175782,-8.7246094 h 1.242188 l 2.736328,7.6757813 2.736328,-7.6757813 z"
               id="path932" /><path
               d="m -45.205078,0 h -1.095703 v -0.69726562 q -0.146485,0.0996094 -0.398438,0.28124999 -0.246093,0.17578125 -0.480468,0.28125001 Q -47.455078,0 -47.8125,0.08789062 q -0.357422,0.09375 -0.837891,0.09375 -0.884765,0 -1.5,-0.5859375 -0.615234,-0.5859375 -0.615234,-1.49414062 0,-0.7441406 0.316406,-1.2011719 0.322266,-0.4628906 0.914063,-0.7265625 0.597656,-0.2636718 1.435547,-0.3574218 0.83789,-0.09375 1.798828,-0.140625 v -0.1699219 q 0,-0.375 -0.134766,-0.6210938 -0.128906,-0.2460937 -0.375,-0.3867187 -0.234375,-0.1347656 -0.5625,-0.1816406 -0.328125,-0.046875 -0.685547,-0.046875 -0.433593,0 -0.966797,0.1171875 -0.533203,0.1113281 -1.101562,0.328125 h -0.05859 v -1.1191407 q 0.322266,-0.087891 0.931641,-0.1933593 0.609375,-0.1054688 1.201172,-0.1054688 0.691406,0 1.201172,0.1171875 0.515625,0.1113281 0.890625,0.3867188 0.36914,0.2695312 0.5625,0.6972656 0.193359,0.4277344 0.193359,1.0605469 z m -1.095703,-1.6113281 v -1.8222657 q -0.503906,0.029297 -1.189453,0.087891 -0.679688,0.058594 -1.078125,0.1699218 -0.47461,0.1347657 -0.767578,0.421875 -0.292969,0.28125 -0.292969,0.7792969 0,0.5625 0.339844,0.8496094 0.339843,0.28125 1.037109,0.28125 0.580078,0 1.060547,-0.2226562 0.480469,-0.2285157 0.890625,-0.5449219 z"
               id="path934" /><path
               d="m -41.970703,0 h -1.101563 v -9.1171875 h 1.101563 z"
               id="path936" /><path
               d="m -38.607422,-7.640625 h -1.242187 v -1.1425781 h 1.242187 z M -38.677734,0 h -1.101563 v -6.5449219 h 1.101563 z"
               id="path938" /><path
               d="m -31.189453,0 h -1.101563 v -0.68554687 q -0.474609,0.41015624 -0.990234,0.63867187 -0.515625,0.22851562 -1.119141,0.22851562 -1.171875,0 -1.863281,-0.90234374 -0.685547,-0.90234378 -0.685547,-2.50195318 0,-0.8320312 0.234375,-1.4824218 0.240235,-0.6503906 0.644532,-1.1074219 0.398437,-0.4453125 0.925781,-0.6796875 0.533203,-0.234375 1.101562,-0.234375 0.515625,0 0.914063,0.1113281 0.398437,0.1054688 0.83789,0.3339844 v -2.8359375 h 1.101563 z m -1.101563,-1.6113281 v -3.7558594 q -0.445312,-0.1992187 -0.796875,-0.2753906 -0.351562,-0.076172 -0.767578,-0.076172 -0.925781,0 -1.441406,0.6445313 -0.515625,0.6445312 -0.515625,1.8281249 0,1.1660157 0.398438,1.7753907 0.398437,0.6035156 1.277343,0.6035156 0.46875,0 0.949219,-0.2050781 0.480469,-0.2109375 0.896484,-0.5390625 z"
               id="path940" /><path
               d="m -23.935547,0 h -1.095703 v -0.69726562 q -0.146484,0.0996094 -0.398437,0.28124999 -0.246094,0.17578125 -0.480469,0.28125001 Q -26.185547,0 -26.542969,0.08789062 q -0.357422,0.09375 -0.83789,0.09375 -0.884766,0 -1.5,-0.5859375 -0.615235,-0.5859375 -0.615235,-1.49414062 0,-0.7441406 0.316407,-1.2011719 0.322265,-0.4628906 0.914062,-0.7265625 0.597656,-0.2636718 1.435547,-0.3574218 0.837891,-0.09375 1.798828,-0.140625 v -0.1699219 q 0,-0.375 -0.134766,-0.6210938 -0.128906,-0.2460937 -0.375,-0.3867187 -0.234375,-0.1347656 -0.5625,-0.1816406 -0.328125,-0.046875 -0.685546,-0.046875 -0.433594,0 -0.966797,0.1171875 -0.533203,0.1113281 -1.101563,0.328125 h -0.05859 v -1.1191407 q 0.322266,-0.087891 0.931641,-0.1933593 0.609375,-0.1054688 1.201172,-0.1054688 0.691406,0 1.201172,0.1171875 0.515625,0.1113281 0.890625,0.3867188 0.36914,0.2695312 0.5625,0.6972656 0.193359,0.4277344 0.193359,1.0605469 z m -1.095703,-1.6113281 v -1.8222657 q -0.503906,0.029297 -1.189453,0.087891 -0.679688,0.058594 -1.078125,0.1699218 -0.474609,0.1347657 -0.767578,0.421875 -0.292969,0.28125 -0.292969,0.7792969 0,0.5625 0.339844,0.8496094 0.339844,0.28125 1.037109,0.28125 0.580078,0 1.060547,-0.2226562 0.480469,-0.2285157 0.890625,-0.5449219 z"
               id="path942" /><path
               d="m -18.416016,-0.05859375 q -0.310546,0.08203125 -0.679687,0.13476562 -0.363281,0.05273438 -0.650391,0.05273438 -1.001953,0 -1.523437,-0.5390625 -0.521485,-0.5390625 -0.521485,-1.72851565 v -3.4804687 h -0.74414 v -0.9257813 h 0.74414 v -1.8808594 h 1.101563 v 1.8808594 h 2.273437 v 0.9257813 h -2.273437 v 2.9824218 q 0,0.515625 0.02344,0.8085938 0.02344,0.2871094 0.164063,0.5390625 0.128906,0.234375 0.351562,0.34570312 0.228516,0.10546875 0.691407,0.10546875 0.269531,0 0.5625,-0.0761719 0.292968,-0.0820313 0.421875,-0.1347656 h 0.05859 z"
               id="path944" /><path
               d="m -15.902344,-7.640625 h -1.242187 v -1.1425781 h 1.242187 z M -15.972656,0 h -1.101563 v -6.5449219 h 1.101563 z"
               id="path946" /><path
               d="m -8.2148438,-3.2695313 q 0,1.5996094 -0.8203125,2.52539068 -0.8203125,0.92578124 -2.1972657,0.92578124 -1.388672,0 -2.208984,-0.92578124 -0.814453,-0.92578128 -0.814453,-2.52539068 0,-1.5996093 0.814453,-2.5253906 0.820312,-0.9316406 2.208984,-0.9316406 1.3769532,0 2.1972657,0.9316406 0.8203125,0.9257813 0.8203125,2.5253906 z m -1.1367187,0 q 0,-1.2714843 -0.4980469,-1.8867187 -0.4980466,-0.6210937 -1.3828126,-0.6210937 -0.896484,0 -1.394531,0.6210937 -0.492188,0.6152344 -0.492188,1.8867187 0,1.2304688 0.498047,1.8691407 0.498047,0.63281248 1.388672,0.63281248 0.878906,0 1.3769532,-0.62695308 0.5039063,-0.6328126 0.5039063,-1.8750001 z"
               id="path948" /><path
               d="m -1.0371094,0 h -1.1015625 v -3.7265625 q 0,-0.4511719 -0.052734,-0.84375 Q -2.2441406,-4.96875 -2.3847656,-5.1914062 -2.53125,-5.4375 -2.8066406,-5.5546875 q -0.2753907,-0.1230469 -0.7148438,-0.1230469 -0.4511719,0 -0.9433593,0.2226563 -0.4921875,0.2226562 -0.9433594,0.5683594 V 0 h -1.1015625 v -6.5449219 h 1.1015625 v 0.7265625 q 0.515625,-0.4277343 1.0664062,-0.6679687 0.5507813,-0.2402344 1.1308594,-0.2402344 1.0605469,0 1.6171875,0.6386719 0.5566406,0.6386719 0.5566406,1.8398437 z"
               id="path950" /></g></g><g
           class="sankey-node"
           transform="translate(520,250)"
           style="opacity:1"
           id="g480"><path
             id="rect476"
             style="fill:#4ba3c3;stroke:#444444;stroke-width:0.5"
             class="node-rect"
             d="M 0,0 H 20 V 70 H 0 Z" /><g
             aria-label="Testing"
             transform="translate(-3.25,39.2)"
             id="text478"
             style="font-size:12px;font-family:'Open Sans', verdana, arial, sans-serif;text-anchor:end;white-space:pre;fill:#2a3f5f"
             class="node-label"><path
               d="m -35.203125,-7.6933594 h -3.117187 V 0 h -1.160157 v -7.6933594 h -3.117187 v -1.03125 h 7.394531 z"
               id="path954" /><path
               d="m -29.929687,-3.1582031 h -4.822266 q 0,0.6035156 0.181641,1.0546875 0.18164,0.4453125 0.498046,0.7324219 0.304688,0.28125 0.720704,0.42187495 0.421875,0.140625 0.925781,0.140625 0.667969,0 1.341797,-0.26367185 0.679687,-0.2695313 0.966797,-0.5273438 h 0.05859 v 1.2011719 q -0.55664,0.234375 -1.136718,0.39257812 -0.580079,0.15820313 -1.21875,0.15820313 -1.628907,0 -2.542969,-0.87890625 -0.914063,-0.8847656 -0.914063,-2.5078125 0,-1.6054687 0.873047,-2.5488281 0.878906,-0.9433594 2.308594,-0.9433594 1.324219,0 2.039062,0.7734375 0.720704,0.7734375 0.720704,2.1972656 z m -1.072266,-0.84375 q -0.0059,-0.8671875 -0.439453,-1.3417969 -0.427735,-0.4746094 -1.306641,-0.4746094 -0.884765,0 -1.412109,0.5214844 -0.521485,0.5214844 -0.591797,1.2949219 z"
               id="path956" /><path
               d="m -23.583984,-1.8867187 q 0,0.89648432 -0.744141,1.47070307 -0.738281,0.57421875 -2.021484,0.57421875 -0.726563,0 -1.335938,-0.16992187 Q -28.289062,-0.1875 -28.699219,-0.39257813 V -1.6289062 h 0.05859 q 0.521484,0.3925781 1.160156,0.6269531 0.638672,0.2285156 1.22461,0.2285156 0.726562,0 1.136718,-0.234375 0.410157,-0.234375 0.410157,-0.7382812 0,-0.3867188 -0.222657,-0.5859376 -0.222656,-0.1992187 -0.855468,-0.3398437 -0.234375,-0.052734 -0.615235,-0.1230469 -0.375,-0.070312 -0.685547,-0.1523437 -0.861328,-0.2285157 -1.224609,-0.6679688 -0.357422,-0.4453125 -0.357422,-1.0898437 0,-0.4042969 0.164063,-0.7617188 0.169922,-0.3574218 0.509765,-0.6386718 0.328125,-0.2753907 0.832032,-0.4335938 0.509765,-0.1640625 1.136718,-0.1640625 0.585938,0 1.183594,0.1464844 0.603516,0.140625 1.001953,0.3457031 v 1.1777344 h -0.05859 q -0.421875,-0.3105469 -1.02539,-0.5214844 -0.603516,-0.2167969 -1.183594,-0.2167969 -0.603516,0 -1.019531,0.234375 -0.416016,0.2285157 -0.416016,0.6855469 0,0.4042969 0.251953,0.609375 0.246094,0.2050781 0.796875,0.3339844 0.304688,0.070312 0.679688,0.140625 0.380859,0.070312 0.632812,0.1289062 0.767578,0.1757813 1.183594,0.6035156 0.416016,0.4335938 0.416016,1.1484376 z"
               id="path958" /><path
               d="m -18.609375,-0.05859375 q -0.310547,0.08203125 -0.679687,0.13476562 -0.363282,0.05273438 -0.650391,0.05273438 -1.001953,0 -1.523438,-0.5390625 -0.521484,-0.5390625 -0.521484,-1.72851565 v -3.4804687 h -0.744141 v -0.9257813 h 0.744141 v -1.8808594 h 1.101563 v 1.8808594 h 2.273437 v 0.9257813 h -2.273437 v 2.9824218 q 0,0.515625 0.02344,0.8085938 0.02344,0.2871094 0.164063,0.5390625 0.128906,0.234375 0.351562,0.34570312 0.228516,0.10546875 0.691406,0.10546875 0.269532,0 0.5625,-0.0761719 0.292969,-0.0820313 0.421875,-0.1347656 h 0.05859 z"
               id="path960" /><path
               d="m -16.095703,-7.640625 h -1.242188 v -1.1425781 h 1.242188 z M -16.166016,0 h -1.101562 v -6.5449219 h 1.101562 z"
               id="path962" /><path
               d="m -8.5136719,0 h -1.1015625 v -3.7265625 q 0,-0.4511719 -0.052734,-0.84375 -0.052734,-0.3984375 -0.1933593,-0.6210937 -0.1464849,-0.2460938 -0.4218749,-0.3632813 -0.275391,-0.1230469 -0.714844,-0.1230469 -0.451172,0 -0.943359,0.2226563 -0.492188,0.2226562 -0.94336,0.5683594 V 0 h -1.101562 v -6.5449219 h 1.101562 v 0.7265625 q 0.515625,-0.4277343 1.066407,-0.6679687 0.550781,-0.2402344 1.130859,-0.2402344 1.0605469,0 1.6171875,0.6386719 0.5566406,0.6386719 0.5566406,1.8398437 z"
               id="path964" /><path
               d="m -1.0839844,-0.74414062 q 0,1.6640625 -0.7558593,2.44335932 -0.7558594,0.7792969 -2.3261719,0.7792969 -0.5214844,0 -1.0195313,-0.076172 -0.4921875,-0.070312 -0.9726562,-0.2050782 v -1.125 h 0.058594 q 0.2695313,0.1054688 0.8554688,0.2578125 0.5859375,0.1582031 1.171875,0.1582031 0.5625,0 0.9316406,-0.1347656 Q -2.7714844,1.21875 -2.5664063,0.97851563 -2.3613281,0.75 -2.2734375,0.42773438 q 0.087891,-0.32226563 0.087891,-0.72070313 V -0.890625 q -0.4980469,0.3984375 -0.9550781,0.59765625 -0.4511719,0.19335938 -1.1542969,0.19335938 -1.171875,0 -1.8632812,-0.84375001 Q -6.84375,-1.7929687 -6.84375,-3.3339844 q 0,-0.84375 0.234375,-1.453125 0.2402344,-0.6152343 0.6503906,-1.0605468 0.3808594,-0.4160157 0.9257813,-0.6445313 0.5449219,-0.234375 1.0839843,-0.234375 0.5683594,0 0.9492188,0.1171875 0.3867187,0.1113281 0.8144531,0.3457031 l 0.070312,-0.28125 h 1.03125 z M -2.1855469,-1.7988281 v -3.5683594 q -0.4394531,-0.1992187 -0.8203125,-0.28125 -0.375,-0.087891 -0.75,-0.087891 -0.9082031,0 -1.4296875,0.609375 -0.5214843,0.609375 -0.5214843,1.7695312 0,1.1015625 0.3867187,1.6699219 0.3867188,0.5683594 1.2832031,0.5683594 0.4804688,0 0.9609375,-0.1816406 0.4863281,-0.1875 0.890625,-0.4980469 z"
               id="path966" /></g></g></g></g></g></svg>
